<svg xmlns="http://www.w3.org/2000/svg" width="677" height="369" viewBox="0 0 677 369">
<g>
<path d="M 287.65 191.07 C288.12,195.81 287.92,196.66 286.12,197.74 C283.78,199.15 282.74,197.91 281.72,192.50 C281.40,190.85 279.39,187.59 277.23,185.25 C275.08,182.92 272.80,179.28 272.17,177.17 C271.25,174.10 269.18,171.85 261.96,166.08 C253.80,159.55 252.64,158.93 250.20,159.76 C246.62,160.97 241.48,159.53 239.54,156.76 C237.12,153.29 237.57,147.76 240.50,145.00 C242.99,142.66 247.88,141.87 251.00,143.29 C253.46,144.42 270.21,130.60 271.78,126.14 C272.49,124.14 273.68,121.89 274.44,121.13 C275.60,119.97 276.16,120.16 278.08,122.38 C279.34,123.82 281.40,125.00 282.68,125.00 C283.96,125.00 285.00,125.45 285.00,126.00 C285.00,126.55 283.71,127.00 282.12,127.00 C277.68,127.00 276.65,129.06 277.26,136.70 C277.66,141.60 277.41,143.97 276.34,145.60 C274.63,148.22 274.35,156.91 275.89,159.79 C277.21,162.27 285.45,167.00 288.43,167.00 C293.24,167.00 294.68,172.28 290.39,174.23 C288.15,175.25 287.58,175.15 286.41,173.54 C284.73,171.25 279.96,168.02 278.25,168.01 C274.58,167.99 278.82,179.15 284.03,183.22 C286.61,185.24 287.19,186.51 287.65,191.07 ZM 277.60 223.18 C273.91,226.27 268.06,224.69 265.40,219.89 C261.56,212.96 267.13,205.95 275.40,207.29 C278.48,207.79 279.53,207.17 287.79,199.97 C296.05,192.77 296.80,191.82 296.71,188.60 C296.57,183.78 299.27,181.00 304.08,181.00 C308.78,181.00 312.46,184.94 311.63,189.09 C310.87,192.92 316.29,198.00 321.14,198.00 C325.48,198.00 328.00,200.49 328.00,204.77 C328.00,210.35 321.03,213.03 317.00,209.00 C315.90,207.90 315.00,205.73 315.00,204.19 C315.00,201.05 310.49,196.00 307.70,196.00 C306.39,196.00 306.00,196.90 306.00,199.88 C306.00,206.60 307.19,210.13 310.63,213.56 C317.32,220.26 325.92,220.01 332.25,212.94 C334.31,210.63 336.00,209.28 336.00,209.93 C336.00,210.58 336.53,210.79 337.17,210.39 C337.96,209.91 338.13,210.22 337.70,211.34 C337.35,212.25 337.46,213.00 337.95,213.00 C338.43,213.00 339.06,212.44 339.34,211.75 C339.73,210.79 339.86,210.80 339.92,211.81 C339.97,212.57 340.53,212.81 341.25,212.40 C341.94,212.00 342.17,212.05 341.76,212.50 C341.35,212.95 341.53,213.93 342.15,214.68 C343.62,216.46 342.46,217.62 340.68,216.15 C339.61,215.26 338.41,215.85 335.16,218.85 C326.13,227.19 315.00,226.80 306.00,217.81 C304.08,215.89 300.48,213.56 298.00,212.63 C295.52,211.71 292.63,210.28 291.56,209.47 C289.64,208.01 289.64,207.99 291.56,206.53 C293.82,204.82 296.62,204.57 297.50,206.00 C297.84,206.55 298.99,207.00 300.06,207.00 C301.75,207.00 302.00,206.28 302.00,201.50 C302.00,197.15 301.67,196.00 300.42,196.00 C299.55,196.00 295.08,199.26 290.50,203.25 C283.28,209.52 282.15,210.95 282.08,213.82 C281.99,217.70 280.54,220.72 277.60,223.18 ZM 325.00 245.62 C325.00,246.38 324.44,246.97 323.75,246.94 C321.26,246.83 309.36,243.22 303.41,240.77 C297.21,238.23 280.97,228.35 281.03,227.15 C281.05,226.79 282.22,225.18 283.64,223.57 C285.75,221.16 286.50,220.85 287.86,221.81 C298.33,229.20 313.57,236.27 321.96,237.61 C326.02,238.26 326.17,238.41 325.60,241.27 C325.27,242.91 325.00,244.87 325.00,245.62 ZM 265.43 204.65 C263.82,205.94 262.16,206.99 261.74,207.00 C260.25,207.00 253.53,195.38 249.89,186.50 C246.39,177.97 243.20,166.46 244.09,165.59 C244.32,165.37 246.26,165.04 248.41,164.85 L 252.31 164.52 L 254.43 172.52 C256.63,180.82 262.38,193.91 266.17,199.23 L 268.35 202.31 ZM 345.03 250.32 C340.99,253.72 336.73,253.82 333.50,250.59 C328.40,245.49 329.34,239.01 335.55,236.42 C337.49,235.60 339.33,234.16 339.62,233.22 C341.48,227.18 345.61,217.22 346.88,215.71 C348.22,214.11 348.47,214.09 349.26,215.50 C349.86,216.57 349.14,219.70 347.07,225.13 C345.38,229.55 344.00,233.67 344.00,234.29 C344.00,234.90 345.87,233.63 348.15,231.45 C350.43,229.28 352.02,228.29 351.68,229.25 C351.25,230.46 351.57,231.00 352.73,231.00 C353.95,231.00 353.41,232.03 350.78,234.75 C347.43,238.21 347.19,238.85 347.69,243.07 C348.18,247.27 347.97,247.85 345.03,250.32 ZM 312.67 172.26 C312.67,173.22 312.18,173.97 311.58,173.92 C310.99,173.88 304.42,169.72 297.00,164.67 C284.90,156.45 283.47,155.17 283.19,152.34 C282.92,149.57 283.45,148.79 287.38,146.09 C291.66,143.14 291.89,143.09 292.50,145.00 C292.85,146.10 293.89,147.01 294.82,147.02 C295.74,147.02 297.15,147.44 297.94,147.94 C299.18,148.73 299.18,149.08 297.94,150.57 C296.67,152.11 296.83,152.52 299.46,154.40 C303.61,157.35 308.45,162.25 308.77,163.82 C308.93,164.55 308.64,164.90 308.14,164.59 C307.64,164.28 306.61,164.78 305.86,165.70 C304.71,167.13 304.71,167.26 305.90,166.54 C306.83,165.98 307.76,166.32 308.65,167.54 C309.39,168.55 310.00,169.04 310.00,168.62 C310.00,168.20 310.60,168.46 311.33,169.19 C312.07,169.92 312.67,171.31 312.67,172.26 ZM 253.43 132.32 C252.51,136.00 251.47,138.93 251.13,138.84 C250.78,138.75 249.04,138.50 247.25,138.28 C244.69,137.96 244.00,137.41 244.00,135.67 C244.00,129.73 252.11,107.29 254.87,105.58 C256.30,104.70 260.24,107.38 259.24,108.56 C258.83,109.04 259.30,108.82 260.27,108.07 C261.25,107.33 262.34,107.00 262.69,107.36 C263.04,107.71 262.81,108.00 262.17,108.00 C261.52,108.00 261.09,108.34 261.21,108.75 C261.33,109.16 260.00,113.13 258.27,117.57 C256.53,122.02 254.36,128.65 253.43,132.32 ZM 262.00 160.58 C270.63,167.88 272.62,167.82 269.50,160.35 C267.62,155.86 267.62,149.28 269.50,146.00 C271.14,143.13 271.49,136.00 269.99,136.00 C269.44,136.00 265.93,138.50 262.19,141.55 C255.77,146.80 255.40,147.33 255.49,151.13 C255.59,154.80 256.16,155.63 262.00,160.58 ZM 359.75 245.30 C358.51,245.60 356.54,246.14 355.36,246.51 C353.46,247.10 353.18,246.73 352.84,243.08 C352.53,239.85 352.81,238.88 354.20,238.44 C356.11,237.83 359.19,239.14 359.16,240.55 C359.16,241.03 358.33,241.75 357.32,242.14 C355.99,242.67 356.36,242.88 358.75,242.93 C362.47,243.01 363.10,244.50 359.75,245.30 ZM 319.31 205.91 C321.05,207.65 323.46,206.76 323.82,204.24 C324.08,202.44 323.66,202.00 321.68,202.00 C318.89,202.00 317.57,204.17 319.31,205.91 ZM 325.00 186.63 C325.00,188.89 322.55,190.95 320.99,189.99 C319.91,189.32 319.98,188.68 321.37,186.55 C323.13,183.88 325.00,183.92 325.00,186.63 Z" fill="rgb(26,49,79)"/>
<path d="M 350.64 234.90 C350.68,234.85 350.73,234.80 350.78,234.75 C353.41,232.03 353.95,231.00 352.73,231.00 C351.57,231.00 351.25,230.46 351.68,229.25 C352.02,228.29 350.43,229.28 348.15,231.45 C345.87,233.63 344.00,234.90 344.00,234.29 C344.00,233.67 345.38,229.55 347.07,225.13 C349.14,219.70 349.86,216.57 349.26,215.50 C348.47,214.09 348.22,214.11 346.88,215.71 C346.21,216.50 344.75,219.63 343.25,223.29 C343.71,222.07 344.19,220.79 344.67,219.50 C347.15,212.90 349.63,206.30 350.18,204.84 C350.87,202.97 350.81,201.52 349.98,199.96 C349.27,198.63 349.04,196.15 349.42,193.79 C349.95,190.45 349.56,189.10 346.86,184.93 C345.10,182.22 343.27,180.00 342.78,180.00 C341.81,180.00 342.34,206.66 343.40,211.50 C343.90,213.79 343.57,215.64 342.79,216.37 C342.90,215.99 342.73,215.38 342.15,214.68 C341.53,213.93 341.35,212.95 341.76,212.50 C342.17,212.05 341.94,212.00 341.25,212.40 C340.53,212.81 339.97,212.57 339.92,211.81 C339.86,210.80 339.73,210.79 339.34,211.75 C339.06,212.44 338.43,213.00 337.95,213.00 C337.46,213.00 337.35,212.25 337.70,211.34 C338.13,210.22 337.96,209.91 337.17,210.39 C336.53,210.79 336.00,210.58 336.00,209.93 C336.00,209.42 334.97,210.13 333.54,211.57 C335.16,208.88 335.61,205.36 335.82,198.68 C336.09,190.24 336.67,187.09 339.24,180.25 C340.95,175.71 342.60,172.01 342.92,172.02 C343.24,172.03 345.92,175.81 348.87,180.42 C353.27,187.29 354.80,188.93 357.37,189.46 C362.08,190.45 364.26,190.48 366.82,189.61 C369.13,188.83 369.13,188.84 367.55,191.91 C366.67,193.61 365.57,195.00 365.11,195.00 C364.64,195.00 363.99,196.64 363.67,198.65 C363.17,201.73 363.57,202.93 366.16,206.20 C367.96,208.47 369.93,209.96 370.87,209.77 C371.77,209.59 373.37,210.24 374.44,211.22 C376.36,212.99 376.36,213.04 374.37,215.75 C373.26,217.26 369.94,219.85 366.99,221.50 C364.05,223.15 358.37,227.59 354.38,231.36 ZM 282.08 127.00 L 282.12 127.00 C283.71,127.00 285.00,126.55 285.00,126.00 C285.00,125.45 283.96,125.00 282.68,125.00 C281.40,125.00 279.34,123.82 278.08,122.38 C276.16,120.16 275.60,119.97 274.44,121.13 C274.33,121.25 274.20,121.39 274.08,121.56 C275.19,119.74 276.57,117.87 277.80,116.56 C282.45,111.67 282.70,109.46 279.63,100.38 C277.44,93.89 277.14,93.50 274.24,93.47 C272.55,93.45 270.02,92.81 268.61,92.06 C265.73,90.52 263.52,85.09 264.51,81.98 C266.47,75.78 274.97,73.88 279.67,78.58 C282.02,80.93 282.20,81.65 281.62,86.60 C281.06,91.30 281.46,93.34 284.60,101.77 C287.58,109.76 288.79,113.07 290.93,113.84 C292.43,114.38 294.39,113.66 297.73,112.42 L 297.84 112.38 C301.50,111.02 305.84,109.29 307.48,108.52 C310.63,107.04 311.63,107.18 310.54,108.93 C310.18,109.52 309.01,110.00 307.94,110.00 C306.67,110.00 306.00,110.69 306.00,112.00 C306.00,113.10 305.44,114.00 304.75,114.01 C304.06,114.01 301.26,115.10 298.52,116.43 C294.68,118.29 293.16,119.72 291.92,122.67 C290.52,126.03 290.49,126.92 291.72,129.87 C292.49,131.72 292.89,133.86 292.59,134.62 C291.65,137.07 289.18,136.09 288.50,132.99 C287.62,129.01 285.49,127.01 282.08,127.00 ZM 325.00 186.63 C325.00,183.93 323.15,183.88 321.40,186.51 C322.56,182.29 325.66,173.90 331.43,159.15 L 334.69 150.79 L 336.78 153.45 C337.93,154.91 339.13,156.05 339.46,155.98 C341.98,155.44 341.35,158.46 336.05,172.46 C332.73,181.22 329.65,188.75 329.21,189.19 C328.12,190.28 322.42,190.88 321.08,190.05 C321.07,190.04 321.06,190.04 321.05,190.03 C322.61,190.90 325.00,188.87 325.00,186.63 ZM 359.75 245.30 C363.10,244.50 362.47,243.01 358.75,242.93 C356.36,242.88 355.99,242.67 357.32,242.14 C358.33,241.75 359.16,241.03 359.16,240.55 C359.19,239.24 356.53,238.02 354.62,238.34 L 361.97 236.03 C367.21,234.39 375.84,230.64 381.16,227.69 C386.47,224.74 390.58,222.93 390.30,223.67 C390.02,224.40 389.34,225.00 388.79,225.00 C388.24,225.00 388.02,225.62 388.31,226.38 C388.63,227.20 388.22,227.70 387.28,227.63 C384.75,227.42 384.63,229.93 387.13,230.85 L 389.43 231.70 L 386.64 234.28 C383.37,237.31 368.45,243.80 362.00,245.00 C359.68,245.43 356.91,246.05 355.60,246.43 C356.79,246.07 358.59,245.58 359.75,245.30 ZM 297.22 151.67 C297.33,151.36 297.58,151.01 297.94,150.57 C299.18,149.08 299.18,148.73 297.94,147.94 C297.15,147.44 295.74,147.02 294.82,147.02 C293.89,147.01 292.85,146.10 292.50,145.00 C291.93,143.19 291.69,143.14 288.03,145.64 C288.92,144.98 289.97,144.22 291.20,143.35 C308.19,131.22 317.03,125.90 317.53,127.50 C317.79,128.33 318.22,129.71 318.50,130.58 C319.72,134.44 317.65,136.93 307.42,143.96 C302.42,147.39 298.22,150.59 297.22,151.67 ZM 344.04 234.28 C344.06,234.95 346.35,233.06 349.12,230.09 C353.26,225.65 353.89,224.52 352.63,223.81 C350.30,222.51 352.13,218.53 355.12,218.39 C356.43,218.33 358.69,218.22 360.14,218.14 C361.59,218.06 363.73,217.21 364.89,216.25 L 367.01 214.50 L 363.32 209.25 C357.30,200.67 356.32,201.33 349.64,218.53 C346.54,226.52 344.02,233.61 344.04,234.28 ZM 257.82 118.73 C257.97,118.33 258.12,117.94 258.27,117.57 C260.00,113.13 261.33,109.16 261.21,108.75 C261.09,108.34 261.52,108.00 262.17,108.00 C262.81,108.00 263.04,107.71 262.69,107.36 C262.34,107.00 261.25,107.33 260.27,108.07 C259.30,108.82 258.83,109.04 259.24,108.56 C260.24,107.38 256.30,104.70 254.87,105.58 C252.89,106.81 248.14,118.74 245.63,127.57 C248.49,117.12 254.99,102.04 259.32,96.62 C261.72,93.61 263.55,93.57 267.30,96.42 C268.99,97.71 268.86,98.15 265.08,104.00 C262.58,107.86 260.03,113.09 257.82,118.73 ZM 312.67 172.26 C312.67,171.31 312.07,169.92 311.33,169.19 C310.60,168.46 310.00,168.20 310.00,168.62 C310.00,169.04 309.39,168.55 308.65,167.54 C307.76,166.32 306.83,165.98 305.90,166.54 C304.71,167.26 304.71,167.13 305.86,165.70 C306.61,164.78 307.64,164.28 308.14,164.59 C308.64,164.90 308.93,164.55 308.77,163.82 C308.52,162.57 305.41,159.22 302.06,156.42 C306.71,159.64 307.23,159.98 313.86,164.00 C317.92,166.46 317.98,166.59 317.99,172.25 C318.00,175.41 317.81,178.00 317.58,178.00 C317.43,178.00 314.05,175.83 309.14,172.60 C310.50,173.43 311.38,173.91 311.58,173.92 C312.18,173.97 312.67,173.22 312.67,172.26 ZM 295.45 98.45 C293.85,99.94 291.81,102.26 290.93,103.60 L 289.33 106.05 L 288.10 101.95 C286.61,96.98 287.36,95.80 293.99,92.60 C298.03,90.65 298.57,90.58 298.57,92.04 C298.57,93.20 297.96,93.56 296.54,93.23 C294.54,92.76 294.53,92.78 296.44,94.25 C298.32,95.71 298.30,95.82 295.45,98.45 ZM 306.17 125.35 C305.17,126.26 304.10,127.00 303.79,127.00 C303.21,127.00 301.78,125.32 300.60,123.25 C299.88,122.00 302.95,118.62 308.24,114.83 C310.79,113.01 310.94,113.00 310.35,114.69 C309.82,116.17 309.95,116.27 311.05,115.25 C313.96,112.55 313.98,114.20 311.07,117.73 C309.38,119.78 308.00,121.96 308.00,122.57 C308.00,123.19 307.18,124.43 306.17,125.35 ZM 304.00 101.38 C304.00,103.43 301.61,105.69 299.87,105.28 C298.54,104.97 298.38,104.23 299.03,101.37 C299.47,99.43 300.04,97.63 300.29,97.37 C300.99,96.68 304.00,99.94 304.00,101.38 ZM 374.97 203.25 C375.00,206.13 374.54,206.68 373.50,205.01 C373.17,204.46 373.35,203.22 373.92,202.26 C374.79,200.75 374.94,200.89 374.97,203.25 ZM 307.94 210.05 C306.54,207.47 306.00,204.40 306.00,199.88 C306.00,199.52 306.01,199.19 306.02,198.89 C306.04,199.76 306.12,200.89 306.24,202.34 C306.49,205.56 307.01,208.03 307.94,210.05 ZM 264.22 134.67 C258.87,139.42 252.45,143.96 251.00,143.29 C251.99,143.75 255.53,141.59 261.49,136.87 C262.50,136.07 263.40,135.35 264.22,134.67 ZM 277.60 223.18 C278.21,222.67 278.75,222.14 279.23,221.58 C277.69,223.58 275.72,224.93 273.80,224.97 C272.93,224.98 272.04,224.82 271.17,224.51 C273.41,225.09 275.77,224.71 277.60,223.18 ZM 324.12 218.07 C321.05,218.80 317.87,218.37 314.87,216.76 C317.64,218.09 321.11,218.53 324.12,218.07 ZM 244.01 135.96 C244.09,137.47 244.84,137.98 247.25,138.28 C249.04,138.50 250.78,138.75 251.13,138.84 C250.78,138.75 248.98,138.49 247.12,138.27 L 243.75 137.85 ZM 353.81 238.59 C352.76,239.10 352.56,240.17 352.83,243.06 L 352.45 239.02 ZM 265.36 211.19 C263.91,213.48 263.67,216.48 265.19,219.50 C264.44,218.24 264.00,216.90 264.00,215.60 C264.00,213.96 264.50,212.45 265.36,211.19 ZM 307.63 196.00 C307.65,196.00 307.67,196.00 307.70,196.00 C309.14,196.00 311.04,197.35 312.54,199.08 C311.04,197.37 309.13,196.04 307.63,196.00 ZM 345.04 250.31 C347.97,247.85 348.18,247.27 347.69,243.07 C347.65,242.74 347.61,242.44 347.59,242.16 L 347.68 242.92 C348.19,247.29 348.01,247.82 345.04,250.31 ZM 298.34 153.57 C297.89,153.20 297.57,152.91 297.39,152.63 C297.62,152.89 297.94,153.21 298.34,153.57 ZM 341.06 216.43 C340.95,216.36 340.84,216.29 340.73,216.19 C340.45,215.96 340.18,215.82 339.87,215.78 C340.16,215.81 340.43,215.94 340.68,216.15 C340.81,216.26 340.94,216.35 341.06,216.43 ZM 283.17 152.07 C283.18,152.16 283.18,152.25 283.19,152.34 C283.22,152.61 283.26,152.88 283.32,153.13 C283.26,152.89 283.22,152.64 283.20,152.39 C283.19,152.28 283.18,152.17 283.17,152.07 Z" fill="rgb(42,82,106)"/>
<path d="M 362.22 224.75 C364.07,223.35 365.77,222.19 366.99,221.50 C369.94,219.85 373.26,217.26 374.37,215.75 C376.36,213.04 376.36,212.99 374.44,211.22 C373.37,210.24 371.77,209.59 370.87,209.77 C370.73,209.80 370.57,209.79 370.39,209.75 C370.79,209.29 371.23,208.23 371.50,207.01 C371.86,205.37 372.57,203.77 373.08,203.45 C373.58,203.14 374.00,202.13 374.00,201.22 C374.00,200.30 376.80,196.73 380.22,193.28 C384.16,189.30 385.84,187.00 384.80,187.00 C383.89,187.00 378.89,188.86 373.69,191.12 C365.70,194.61 364.41,195.28 363.85,197.73 C364.20,196.16 364.71,195.00 365.11,195.00 C365.57,195.00 366.67,193.61 367.55,191.91 C369.13,188.84 369.13,188.83 366.82,189.61 C366.28,189.80 365.75,189.94 365.20,190.05 C365.83,189.82 366.55,189.53 367.37,189.16 C372.29,186.98 372.54,186.54 371.05,182.64 C370.36,180.81 370.48,179.85 371.51,178.99 C373.77,177.11 376.84,178.74 377.19,182.01 L 377.50 184.92 L 381.52 183.11 C386.32,180.95 388.42,177.23 386.97,173.42 C385.10,168.51 388.95,167.06 390.96,171.91 C391.68,173.63 393.19,175.08 394.66,175.45 C396.86,176.00 397.06,176.44 396.45,179.29 C395.55,183.50 395.36,183.63 393.07,181.56 C392.00,180.60 390.65,180.10 390.06,180.46 C388.46,181.45 388.78,182.98 390.75,183.71 C391.71,184.06 392.83,184.84 393.23,185.43 C393.73,186.15 393.97,186.09 393.98,185.25 C393.99,184.56 394.50,184.00 395.11,184.00 C395.72,184.00 395.96,184.65 395.66,185.45 C395.28,186.43 395.58,186.71 396.58,186.33 C397.71,185.90 397.79,185.45 396.90,184.38 C395.47,182.66 397.14,182.55 398.86,184.25 C399.87,185.25 400.00,185.18 399.50,183.88 C399.13,182.90 399.50,182.02 400.44,181.66 C401.30,181.33 402.00,181.50 402.00,182.03 C402.00,182.56 402.06,183.33 402.13,183.74 C402.20,184.14 401.02,185.16 399.51,185.99 C397.46,187.13 396.69,188.41 396.45,191.05 C396.28,193.00 395.49,196.45 394.70,198.74 C393.31,202.79 393.34,202.95 396.01,205.51 C398.33,207.73 399.31,208.03 402.37,207.46 C407.47,206.50 410.25,207.46 412.26,210.86 C414.89,215.31 414.47,218.76 410.89,222.10 C407.42,225.35 405.20,225.67 401.09,223.55 C398.14,222.02 396.28,218.51 395.79,213.55 C395.56,211.24 394.02,209.48 388.58,205.30 C384.77,202.39 381.22,200.00 380.69,200.00 C379.30,200.00 377.07,203.20 377.03,205.25 C377.00,207.12 379.47,207.66 380.50,206.00 C381.36,204.61 383.15,204.80 385.42,206.52 C387.22,207.88 387.24,208.08 385.65,209.83 C384.73,210.85 382.07,212.32 379.74,213.08 C377.41,213.85 374.52,215.62 373.33,217.03 C372.14,218.44 368.77,220.87 365.83,222.43 C364.85,222.95 363.60,223.76 362.22,224.75 ZM 295.45 98.45 C298.30,95.82 298.32,95.71 296.44,94.25 C294.53,92.78 294.54,92.76 296.54,93.23 C297.96,93.56 298.57,93.20 298.57,92.04 C298.57,90.58 298.03,90.65 293.99,92.60 C293.39,92.89 292.84,93.16 292.33,93.42 C295.82,91.32 300.45,89.00 301.55,89.00 C302.14,89.00 303.62,87.65 304.84,86.01 C307.36,82.60 313.77,79.00 317.32,79.00 C319.36,79.00 319.65,79.39 319.23,81.56 C318.88,83.38 317.65,84.56 314.93,85.64 C312.83,86.48 310.46,88.17 309.66,89.40 C308.30,91.47 308.45,91.92 311.85,95.80 C316.48,101.09 318.73,100.69 321.78,94.05 C323.00,91.39 324.00,88.72 324.00,88.11 C324.00,86.50 326.69,86.75 327.33,88.42 C327.63,89.19 326.98,92.19 325.88,95.07 C324.24,99.38 324.09,100.81 325.04,103.09 C325.67,104.62 325.89,107.23 325.52,108.89 C324.95,111.51 325.52,112.71 329.83,117.89 C332.56,121.18 335.07,123.60 335.40,123.27 C335.73,122.94 336.05,119.93 336.12,116.58 C336.18,113.24 336.46,111.40 336.74,112.49 C337.01,113.58 338.07,115.06 339.08,115.77 C340.85,117.01 340.84,117.25 338.79,122.78 C335.36,132.05 335.17,132.06 328.45,123.10 C323.03,115.88 322.14,115.12 318.50,114.69 C314.92,114.27 314.16,114.59 311.25,117.78 C310.21,118.92 309.28,120.11 308.68,121.04 C309.25,120.10 310.11,118.89 311.07,117.73 C313.98,114.20 313.96,112.55 311.05,115.25 C309.95,116.27 309.82,116.17 310.35,114.69 C310.94,113.00 310.79,113.01 308.24,114.83 C305.70,116.65 303.66,118.38 302.32,119.82 C302.93,119.16 303.72,118.37 304.72,117.41 C309.38,112.93 309.42,112.83 306.50,113.47 C306.17,113.55 305.76,113.66 305.30,113.80 C305.71,113.47 306.00,112.79 306.00,112.00 C306.00,110.69 306.67,110.00 307.94,110.00 C309.01,110.00 310.18,109.52 310.54,108.93 C311.63,107.18 310.63,107.04 307.48,108.52 C305.84,109.29 301.50,111.02 297.84,112.38 L 297.73 112.42 C294.39,113.66 292.43,114.38 290.93,113.84 C289.86,113.46 289.03,112.44 288.09,110.53 C288.94,112.21 289.77,113.18 290.81,113.61 C292.71,114.38 295.36,113.32 300.34,111.34 C300.54,111.26 300.74,111.18 300.95,111.10 C312.22,106.61 313.62,104.50 308.88,99.19 C307.31,97.43 305.83,96.00 305.59,96.00 C305.35,96.00 304.84,97.46 304.46,99.25 C304.31,99.97 304.15,100.63 303.99,101.21 C303.78,99.70 300.96,96.71 300.29,97.37 C300.04,97.62 299.50,99.32 299.07,101.19 C299.52,99.19 299.73,97.40 299.54,97.20 C298.85,96.51 295.36,98.69 293.00,100.99 C293.80,100.09 294.68,99.17 295.45,98.45 ZM 297.60 73.21 C294.79,74.85 291.15,77.00 289.50,77.98 C286.51,79.76 286.49,79.76 284.25,76.98 C283.01,75.44 282.00,73.85 282.00,73.45 C282.00,72.09 285.48,69.92 296.48,64.41 C306.97,59.16 311.83,58.00 311.21,60.88 C311.06,61.61 311.46,62.85 312.11,63.63 C312.76,64.41 313.00,65.34 312.64,65.69 C312.29,66.04 312.00,65.79 312.00,65.13 C312.00,64.46 310.76,65.07 309.25,66.47 C307.74,67.87 305.64,69.29 304.60,69.63 C303.55,69.96 300.40,71.57 297.60,73.21 ZM 338.04 167.09 C341.47,157.67 341.62,155.51 339.46,155.98 C339.13,156.05 337.93,154.91 336.78,153.45 L 334.69 150.79 L 331.43 159.15 C330.51,161.49 329.66,163.68 328.87,165.71 C330.40,161.61 332.30,156.51 334.01,152.00 C336.82,144.57 339.81,136.25 340.65,133.50 C341.49,130.75 342.49,128.17 342.87,127.77 C343.26,127.36 345.26,128.23 347.32,129.70 C349.91,131.54 350.87,132.86 350.42,133.94 C350.06,134.80 346.94,143.15 343.47,152.50 C341.35,158.20 339.56,163.02 338.04,167.09 ZM 370.09 171.82 C366.02,174.67 362.08,177.00 361.34,177.00 C360.40,177.00 360.00,175.54 360.00,172.14 C360.00,167.35 360.08,167.23 365.90,163.15 C372.23,158.71 375.18,157.23 374.92,158.63 C374.57,160.56 375.05,162.09 375.85,161.59 C376.32,161.30 377.43,161.61 378.31,162.28 C380.50,163.95 379.24,165.41 370.09,171.82 ZM 385.67 235.05 C386.06,234.78 386.39,234.52 386.64,234.28 L 389.43 231.70 L 387.13 230.85 C384.63,229.93 384.75,227.42 387.28,227.63 C388.22,227.70 388.63,227.20 388.31,226.38 C388.02,225.62 388.24,225.00 388.79,225.00 C389.34,225.00 390.02,224.40 390.30,223.67 C390.55,223.00 387.20,224.42 382.62,226.89 C384.15,225.99 385.62,225.07 387.00,224.14 L 391.49 221.10 L 394.25 223.73 C395.76,225.19 397.00,226.68 397.00,227.06 C397.00,227.44 393.51,230.04 389.25,232.83 C388.11,233.58 386.91,234.33 385.67,235.05 ZM 418.34 205.18 C416.27,207.46 416.14,207.45 412.51,204.48 L 409.52 202.04 L 411.61 199.94 C413.56,198.00 413.82,197.97 415.35,199.50 C416.26,200.40 417.01,200.77 417.03,200.32 C417.05,199.87 417.72,200.37 418.52,201.43 C419.81,203.14 419.79,203.57 418.34,205.18 ZM 385.41 197.47 C387.11,198.79 387.46,198.76 388.63,197.23 C390.13,195.25 390.43,192.00 389.11,192.00 C388.62,192.00 387.16,192.90 385.86,194.00 C383.56,195.95 383.55,196.04 385.41,197.47 ZM 374.97 203.25 C374.94,200.89 374.79,200.75 373.92,202.26 C373.35,203.22 373.17,204.46 373.50,205.01 C374.54,206.68 375.00,206.13 374.97,203.25 ZM 329.25 189.15 C329.24,189.16 329.23,189.17 329.22,189.18 C329.67,188.65 332.36,182.10 335.40,174.17 C330.99,185.87 329.84,188.56 329.25,189.15 ZM 359.97 189.95 C359.19,189.83 358.33,189.66 357.37,189.46 C356.84,189.35 356.36,189.20 355.89,188.96 C355.98,188.99 356.06,189.00 356.13,189.00 C357.02,189.00 358.68,189.41 359.97,189.95 ZM 322.89 181.82 C322.22,183.75 321.73,185.30 321.40,186.51 C321.39,186.52 321.38,186.54 321.37,186.55 C321.18,186.85 321.01,187.12 320.86,187.37 C321.10,186.47 321.50,185.33 322.07,183.91 C322.31,183.30 322.59,182.59 322.89,181.82 ZM 303.08 103.72 C302.31,105.21 301.40,105.66 300.14,105.33 L 300.12 105.32 C301.12,105.41 302.29,104.71 303.08,103.72 ZM 296.92 117.26 C297.40,116.99 297.93,116.71 298.52,116.43 C301.11,115.17 303.76,114.13 304.62,114.02 C302.80,114.63 300.40,115.58 298.42,116.51 C297.87,116.77 297.38,117.02 296.92,117.26 ZM 363.33 244.71 C366.25,243.99 370.28,242.54 374.20,240.89 C370.22,242.63 366.41,243.98 363.33,244.71 ZM 354.80 188.25 C353.32,187.06 351.67,184.81 348.87,180.42 C348.76,180.25 348.65,180.08 348.54,179.91 C348.67,180.11 348.80,180.31 348.93,180.52 C351.40,184.37 353.43,187.04 354.80,188.25 ZM 302.91 126.43 C302.33,125.99 301.50,124.93 300.97,123.95 C300.91,123.84 300.86,123.73 300.81,123.62 C301.52,124.81 302.30,125.83 302.91,126.43 ZM 291.73 129.88 C291.87,130.23 292.00,130.58 292.11,130.93 C292.00,130.57 291.87,130.21 291.72,129.87 C290.82,127.71 290.59,126.65 291.09,124.93 C290.64,126.65 290.87,127.76 291.73,129.88 ZM 307.97 122.82 C307.83,123.44 307.34,124.17 306.69,124.83 C307.34,124.13 307.83,123.34 307.97,122.82 ZM 353.81 238.59 L 352.45 239.02 L 352.45 238.99 L 353.96 238.52 C353.91,238.54 353.86,238.57 353.81,238.59 ZM 290.44 104.36 L 289.34 106.09 L 289.33 106.05 ZM 354.50 238.36 L 356.42 237.77 L 354.62 238.34 C354.58,238.34 354.54,238.35 354.50,238.36 ZM 321.02 190.01 C321.03,190.02 321.04,190.02 321.05,190.03 C321.06,190.03 321.06,190.04 321.06,190.04 C321.05,190.03 321.04,190.03 321.03,190.02 Z" fill="rgb(53,117,128)"/>
<path d="M 336.52 128.29 C337.17,127.14 337.86,125.30 338.79,122.78 C340.84,117.25 340.85,117.01 339.08,115.77 C338.07,115.06 337.01,113.58 336.74,112.49 C336.46,111.40 336.18,113.24 336.12,116.58 C336.05,119.93 335.73,122.94 335.40,123.27 C335.26,123.41 334.71,123.04 333.91,122.31 C334.63,122.90 335.15,123.17 335.35,122.99 C335.81,122.56 336.04,115.67 335.85,107.68 C335.54,94.88 335.25,92.81 333.44,90.38 C332.31,88.87 330.91,87.47 330.33,87.28 C328.94,86.81 324.66,96.81 324.88,100.00 C324.93,100.68 325.00,101.84 325.07,103.17 C325.06,103.15 325.05,103.12 325.04,103.09 C324.09,100.81 324.24,99.38 325.88,95.07 C326.98,92.19 327.63,89.19 327.33,88.42 C326.84,87.15 325.18,86.70 324.41,87.26 C324.47,87.06 324.52,86.89 324.55,86.75 C325.17,84.20 324.99,84.00 322.13,84.00 C318.86,84.00 314.43,85.56 311.71,87.45 C312.69,86.74 313.85,86.08 314.93,85.64 C317.65,84.56 318.88,83.38 319.23,81.56 C319.65,79.39 319.36,79.00 317.32,79.00 C316.24,79.00 314.89,79.33 313.46,79.90 C314.86,79.32 316.31,78.85 317.74,78.55 C320.18,78.02 322.31,76.13 326.43,70.83 C331.26,64.62 331.77,63.52 330.90,61.23 C330.36,59.81 330.20,57.37 330.55,55.79 C331.18,52.89 335.49,49.16 336.75,50.42 C337.13,50.80 336.81,51.50 336.04,51.98 C335.02,52.61 334.92,53.21 335.68,54.17 C338.02,57.11 338.30,66.92 336.01,65.51 C335.58,65.24 334.67,65.69 333.99,66.51 C333.31,67.33 333.06,68.00 333.42,68.00 C333.79,68.00 332.50,70.09 330.55,72.64 C326.38,78.10 326.28,78.64 329.25,79.55 C330.49,79.93 333.35,81.74 335.61,83.57 L 339.72 86.91 L 341.85 84.45 C344.33,81.61 345.28,81.43 347.01,83.51 C348.04,84.75 347.75,85.75 345.39,89.16 C342.75,92.97 342.47,94.26 341.92,104.90 C341.47,113.57 340.73,118.02 339.00,122.50 C337.96,125.17 337.21,127.10 336.52,128.29 ZM 378.16 166.45 C375.86,167.98 373.64,169.44 371.60,170.76 C379.37,165.24 380.37,163.85 378.31,162.28 C377.43,161.61 376.32,161.30 375.85,161.59 C375.05,162.09 374.57,160.56 374.92,158.63 C375.11,157.58 373.51,158.15 370.04,160.36 L 370.45 160.08 C376.20,156.17 381.12,152.61 381.39,152.17 C381.66,151.74 376.73,147.90 370.44,143.65 L 359.00 135.92 L 359.00 130.96 C359.00,127.91 359.44,126.00 360.14,126.00 C361.25,126.00 370.12,131.74 386.25,142.89 C393.63,148.00 394.00,148.43 394.00,152.08 L 394.00 155.91 ZM 395.92 194.50 C395.31,197.02 394.50,199.72 394.02,200.84 C394.18,200.27 394.41,199.59 394.70,198.74 C395.49,196.45 396.28,193.00 396.45,191.05 C396.69,188.41 397.46,187.13 399.51,185.99 C401.02,185.16 402.20,184.14 402.13,183.74 C402.06,183.33 402.00,182.56 402.00,182.03 C402.00,181.50 401.30,181.33 400.44,181.66 C399.50,182.02 399.13,182.90 399.50,183.88 C400.00,185.18 399.87,185.25 398.86,184.25 C397.14,182.55 395.47,182.66 396.90,184.38 C397.79,185.45 397.71,185.90 396.58,186.33 C395.58,186.71 395.28,186.43 395.66,185.45 C395.96,184.65 395.72,184.00 395.11,184.00 C394.50,184.00 393.99,184.56 393.98,185.25 C393.97,186.09 393.73,186.15 393.23,185.43 C392.83,184.84 391.71,184.06 390.75,183.71 C388.78,182.98 388.46,181.45 390.06,180.46 C390.65,180.10 392.00,180.60 393.07,181.56 C395.36,183.63 395.55,183.50 396.45,179.29 C397.06,176.44 396.86,176.00 394.66,175.45 C394.21,175.34 393.76,175.12 393.32,174.83 C394.89,175.77 396.85,175.67 398.78,174.41 C400.74,173.12 401.08,172.10 400.98,167.69 C400.91,164.84 401.60,160.49 402.50,158.03 C404.40,152.84 403.88,148.38 400.91,144.61 C398.54,141.60 399.00,140.17 402.23,140.51 C403.48,140.64 405.06,140.80 405.75,140.87 C407.40,141.04 407.34,142.52 405.62,144.24 C404.49,145.37 404.46,146.06 405.47,147.95 C406.36,149.61 406.93,149.91 407.48,149.03 C408.08,148.06 408.44,148.08 409.11,149.14 C410.42,151.22 410.17,155.15 408.38,160.40 C406.16,166.92 407.58,167.75 413.02,163.12 C418.50,158.46 422.00,156.47 422.00,158.02 C422.00,158.63 422.51,158.80 423.13,158.42 C423.91,157.93 423.97,158.22 423.33,159.38 C422.82,160.29 419.05,163.77 414.95,167.11 C409.21,171.79 407.08,174.25 405.68,177.84 C404.68,180.40 402.35,184.07 400.50,186.00 C398.33,188.25 396.70,191.29 395.92,194.50 ZM 430.88 179.24 C428.48,186.66 422.40,199.58 419.34,203.82 C419.65,203.11 419.36,202.54 418.52,201.43 C417.72,200.37 417.05,199.87 417.03,200.32 C417.01,200.77 416.26,200.40 415.35,199.50 C413.82,197.97 413.56,198.00 411.61,199.94 L 410.60 200.95 L 411.73 199.35 C415.25,194.38 420.26,183.74 422.48,176.57 C425.11,168.03 426.69,166.78 430.27,170.36 L 432.90 172.99 ZM 350.52 133.57 C350.64,132.56 349.62,131.34 347.32,129.70 C345.26,128.23 343.26,127.36 342.87,127.77 C342.86,127.78 342.85,127.79 342.84,127.80 C344.40,123.57 345.76,119.90 346.60,117.75 L 348.43 113.00 L 353.32 113.00 C357.57,113.00 358.13,113.23 357.54,114.75 C357.19,115.65 354.11,123.92 350.52,133.57 ZM 298.45 72.72 C301.01,71.26 303.66,69.93 304.60,69.63 C305.64,69.29 307.74,67.87 309.25,66.47 C310.76,65.07 312.00,64.46 312.00,65.13 C312.00,65.79 312.29,66.04 312.64,65.69 C313.00,65.34 312.76,64.41 312.11,63.63 C311.46,62.85 311.06,61.61 311.21,60.88 C311.58,59.16 310.01,58.88 306.46,60.04 C310.07,58.66 313.46,57.55 316.14,56.94 C320.74,55.90 324.86,55.04 325.31,55.03 C325.75,55.01 325.98,56.90 325.81,59.22 C325.51,63.37 325.42,63.47 320.50,64.78 C309.75,67.66 303.38,69.95 298.45,72.72 ZM 359.13 104.35 C357.31,106.54 355.82,106.43 352.58,103.88 C350.52,102.27 349.96,101.05 350.20,98.71 C350.60,94.66 352.65,94.13 353.47,97.86 C354.39,102.05 356.68,102.57 358.81,99.08 C360.38,96.48 360.74,96.34 362.47,97.60 C363.52,98.37 363.85,99.00 363.19,99.00 C362.54,99.00 362.00,99.68 362.00,100.50 C362.00,101.32 361.66,101.89 361.25,101.75 C360.84,101.61 360.50,101.77 360.50,102.10 C360.50,102.42 359.88,103.44 359.13,104.35 ZM 370.81 115.74 C370.63,116.70 369.69,117.63 368.74,117.81 C367.41,118.07 367.00,117.46 367.00,115.24 C367.00,113.64 367.28,112.05 367.62,111.71 C368.64,110.69 371.17,113.87 370.81,115.74 ZM 390.37 135.79 C390.63,136.22 389.94,136.57 388.81,136.57 C386.63,136.57 385.41,134.76 386.46,133.06 C387.36,131.61 391.67,132.14 391.67,133.70 C391.67,134.42 391.27,135.00 390.77,135.00 C390.28,135.00 390.10,135.35 390.37,135.79 ZM 282.01 73.34 C282.02,71.60 290.80,66.72 300.12,62.65 C298.99,63.17 297.78,63.76 296.48,64.41 C285.76,69.78 282.18,71.97 282.01,73.35 ZM 364.74 163.97 C360.08,167.26 360.00,167.69 360.00,172.10 L 360.00 167.19 ZM 325.42 109.40 C325.75,112.14 326.65,113.86 329.34,117.29 C325.74,112.94 325.06,111.59 325.42,109.40 ZM 322.89 181.82 L 322.86 181.90 C324.20,177.94 326.23,172.48 329.03,165.30 L 328.87 165.71 C326.13,172.81 324.18,178.05 322.89,181.82 ZM 323.81 88.96 C323.47,90.10 322.69,92.08 321.78,94.05 C321.70,94.24 321.61,94.42 321.53,94.60 C322.33,92.73 323.20,90.60 323.81,88.96 ZM 393.84 202.72 C394.11,203.47 394.78,204.32 395.87,205.38 C394.65,204.20 394.01,203.54 393.84,202.72 ZM 310.20 93.86 C308.45,91.68 308.57,91.06 309.66,89.40 C308.60,91.02 308.50,91.66 310.20,93.86 ZM 336.99 143.99 C337.65,142.12 338.37,140.13 339.09,138.11 C338.49,139.83 337.77,141.85 336.99,143.99 ZM 309.84 81.73 C307.80,82.98 305.94,84.51 304.84,86.01 C305.96,84.49 307.74,82.99 309.84,81.73 ZM 334.16 129.61 C332.92,129.03 331.26,126.84 328.45,123.10 C331.25,126.83 332.92,129.01 334.16,129.61 ZM 361.22 176.99 C361.20,177.00 361.18,177.00 361.16,177.00 C360.95,177.00 360.76,176.84 360.60,176.53 C360.76,176.80 360.97,176.95 361.22,176.99 ZM 400.40 207.71 C398.73,207.76 397.75,207.17 396.01,205.51 C397.76,207.18 398.75,207.76 400.40,207.71 ZM 318.07 99.19 C317.83,99.30 317.59,99.37 317.35,99.41 C317.38,99.40 317.40,99.39 317.43,99.39 C317.65,99.32 317.87,99.25 318.07,99.19 ZM 390.99 171.97 C390.98,171.95 390.97,171.93 390.96,171.91 C390.02,169.63 388.66,168.74 387.69,168.95 C388.66,168.74 390.02,169.62 390.96,171.90 C390.97,171.93 390.98,171.95 390.99,171.97 ZM 329.23 189.17 C329.22,189.18 329.22,189.18 329.21,189.19 C329.22,189.18 329.22,189.18 329.22,189.18 C329.23,189.17 329.23,189.17 329.24,189.16 C329.23,189.17 329.23,189.17 329.23,189.17 Z" fill="rgb(60,141,146)"/>
<path d="M 390.99 171.97 C390.98,171.95 390.97,171.93 390.96,171.90 C390.02,169.62 388.66,168.74 387.69,168.95 C386.79,169.15 386.21,170.29 386.59,172.14 C386.60,172.20 386.61,172.25 386.63,172.31 C384.93,166.58 388.21,164.98 390.58,170.90 C391.46,173.11 392.62,174.53 393.97,175.15 C393.75,175.07 393.53,174.96 393.32,174.83 C392.36,174.18 391.49,173.14 390.99,171.97 ZM 387.06 173.68 C387.62,175.33 387.52,176.96 386.82,178.44 C387.45,177.01 387.54,175.41 387.06,173.68 Z" fill="rgb(82,105,124)"/>
<path d="M 359.13 104.35 C359.88,103.44 360.50,102.42 360.50,102.10 C360.50,101.77 360.84,101.61 361.25,101.75 C361.66,101.89 362.00,101.32 362.00,100.50 C362.00,99.68 362.54,99.00 363.19,99.00 C363.85,99.00 363.52,98.37 362.47,97.60 C360.74,96.34 360.38,96.48 358.81,99.08 C358.74,99.19 358.67,99.30 358.60,99.41 C358.83,98.81 358.88,98.14 358.64,97.50 C358.29,96.60 357.22,96.00 356.26,96.19 C354.10,96.61 353.33,99.97 355.15,101.09 C355.55,101.34 355.99,101.41 356.42,101.34 C355.15,101.66 354.04,100.47 353.47,97.86 C352.65,94.13 350.60,94.66 350.20,98.71 C350.15,99.16 350.13,99.57 350.15,99.95 C350.05,99.51 350.00,99.05 350.00,98.58 C350.00,94.58 352.60,92.00 356.64,92.00 C360.77,92.00 363.16,94.04 363.45,97.83 C363.73,101.28 369.40,108.49 371.05,107.47 C372.84,106.37 372.11,96.13 369.94,91.89 C366.11,84.38 355.70,81.80 348.64,86.60 C345.24,88.91 343.45,91.41 342.61,95.88 C343.07,92.83 343.80,91.45 345.39,89.16 C347.75,85.75 348.04,84.75 347.01,83.51 C346.01,82.30 345.27,81.86 344.34,82.25 C345.33,81.51 346.40,80.83 347.28,80.38 C349.05,79.48 350.65,78.62 350.83,78.46 C351.43,77.94 348.81,73.74 345.86,70.50 C343.50,67.90 342.18,67.31 338.73,67.27 C335.43,67.23 334.47,67.50 332.38,70.10 C333.22,68.84 333.66,68.00 333.42,68.00 C333.06,68.00 333.31,67.33 333.99,66.51 C334.67,65.69 335.58,65.24 336.01,65.51 C338.30,66.92 338.02,57.11 335.68,54.17 C334.92,53.21 335.02,52.61 336.04,51.98 C336.81,51.50 337.13,50.80 336.75,50.42 C336.64,50.31 336.52,50.24 336.37,50.20 C339.61,49.50 343.44,50.35 345.67,52.58 C347.93,54.84 348.17,55.71 347.63,59.66 C347.00,64.24 347.78,66.72 350.83,69.90 C351.75,70.86 353.97,73.30 355.77,75.32 C357.91,77.72 359.92,79.00 361.57,79.00 C364.93,79.00 368.84,81.13 372.46,84.93 C374.09,86.64 377.90,89.18 380.93,90.57 C383.96,91.96 387.16,93.74 388.04,94.53 C389.45,95.81 390.02,95.57 393.03,92.47 C395.93,89.48 396.38,88.38 396.13,84.89 C395.72,79.25 398.76,76.00 404.45,76.00 C406.71,76.00 409.54,76.69 410.74,77.53 C413.37,79.37 414.67,85.24 413.17,88.53 C411.63,91.90 406.69,94.22 402.64,93.46 C399.54,92.88 398.78,93.38 390.25,101.67 C382.17,109.52 381.22,110.81 381.71,113.30 C382.13,115.50 383.51,116.73 388.10,119.05 C395.40,122.73 397.13,122.79 393.74,119.25 C392.27,117.71 390.64,114.38 390.04,111.68 C389.04,107.20 389.12,106.72 391.23,104.98 C393.23,103.33 393.64,103.28 394.65,104.60 C395.28,105.43 396.10,107.77 396.47,109.80 C396.87,111.99 398.53,114.93 400.53,117.00 C402.38,118.93 404.83,122.60 405.96,125.17 C407.44,128.51 409.92,131.34 414.72,135.17 C425.53,143.77 425.86,143.94 429.16,142.79 C431.24,142.07 432.91,142.13 435.07,143.03 C438.67,144.52 440.00,146.72 440.00,151.21 C440.00,157.69 434.74,161.85 429.07,159.87 C425.67,158.69 424.28,159.44 413.50,168.31 C413.35,168.44 413.20,168.56 413.05,168.69 C413.64,168.19 414.27,167.66 414.95,167.11 C419.05,163.77 422.82,160.29 423.33,159.38 C423.97,158.22 423.91,157.93 423.13,158.42 C422.51,158.80 422.00,158.63 422.00,158.02 C422.00,156.47 418.50,158.46 413.02,163.12 C412.58,163.49 412.17,163.83 411.78,164.13 C413.23,162.93 415.20,161.28 417.10,159.69 C422.12,155.50 422.67,154.66 422.48,151.48 C422.24,147.48 420.54,145.30 413.88,140.41 C406.39,134.91 405.76,135.73 408.70,147.18 C408.90,148.00 409.09,148.72 409.24,149.37 C409.20,149.29 409.16,149.22 409.11,149.14 C408.44,148.08 408.08,148.06 407.48,149.03 C406.93,149.91 406.36,149.61 405.47,147.95 C404.46,146.06 404.49,145.37 405.62,144.24 C407.34,142.52 407.40,141.04 405.75,140.87 C405.06,140.80 403.48,140.64 402.23,140.51 C399.00,140.17 398.54,141.60 400.91,144.61 C403.87,148.37 404.40,152.81 402.52,157.98 C402.81,156.43 403.00,154.46 403.00,152.64 C403.00,146.01 400.39,142.30 393.81,139.58 C389.46,137.78 387.69,136.99 386.98,136.02 C387.44,136.36 388.07,136.57 388.81,136.57 C389.94,136.57 390.63,136.22 390.37,135.79 C390.10,135.35 390.28,135.00 390.77,135.00 C391.27,135.00 391.67,134.42 391.67,133.70 C391.67,132.20 387.69,131.65 386.58,132.90 C386.81,131.78 387.56,131.38 389.41,131.17 C391.23,130.96 392.64,131.39 393.16,132.31 C393.61,133.13 395.59,134.74 397.55,135.90 L 401.12 138.00 L 400.81 134.25 C400.51,130.61 400.23,130.36 391.10,125.64 C382.18,121.01 381.52,120.83 377.87,121.92 C374.75,122.85 373.49,122.79 371.14,121.57 C368.99,120.46 367.89,119.38 367.38,117.46 C367.64,117.85 368.08,117.94 368.74,117.81 C369.69,117.63 370.63,116.70 370.81,115.74 C371.17,113.87 368.64,110.69 367.62,111.71 C367.33,112.01 367.08,113.22 367.02,114.57 C367.01,114.24 367.00,113.90 367.00,113.54 C367.00,109.44 361.62,104.73 357.90,105.49 C358.31,105.23 358.71,104.85 359.13,104.35 ZM 432.84 137.41 C426.60,139.37 426.13,139.21 424.99,134.76 C421.11,119.68 417.29,110.20 412.03,102.54 C410.36,100.12 409.00,97.93 409.00,97.67 C409.00,97.41 410.57,96.27 412.48,95.14 L 415.97 93.09 L 418.35 96.29 C427.02,107.96 436.94,136.13 432.84,137.41 ZM 395.96 73.35 C395.94,73.98 394.90,75.75 393.65,77.29 L 391.37 80.08 L 388.89 78.13 C383.77,74.10 369.47,67.72 360.91,65.65 L 352.02 63.50 L 352.01 59.25 C352.01,56.91 352.40,55.00 352.89,55.00 C353.38,55.00 357.32,55.72 361.64,56.60 C373.10,58.93 396.06,70.14 395.96,73.35 ZM 376.98 107.45 C377.01,108.88 384.00,101.80 384.00,100.33 C384.00,99.03 379.06,96.00 376.94,96.00 C376.13,96.00 375.95,97.59 376.36,101.25 C376.69,104.14 376.96,106.93 376.98,107.45 ZM 432.69 172.78 L 430.27 170.36 C426.69,166.78 425.11,168.03 422.48,176.57 C420.90,181.68 417.90,188.54 415.04,193.87 C418.51,187.29 422.28,178.08 423.61,172.46 L 425.37 165.00 L 434.18 165.00 L 433.46 169.21 C433.28,170.29 433.02,171.49 432.69,172.78 ZM 342.02 103.07 C342.01,103.66 342.00,104.27 342.00,104.91 C342.00,110.91 341.64,114.15 340.29,118.45 C341.14,115.04 341.60,111.02 341.92,104.90 C341.95,104.26 341.98,103.65 342.02,103.07 ZM 401.85 160.29 C401.29,162.66 400.93,165.58 400.98,167.69 C401.03,170.01 400.96,171.39 400.60,172.36 C400.95,171.40 400.98,170.02 400.89,167.68 C400.77,164.82 401.20,161.50 401.84,160.30 ZM 427.23 188.58 C424.62,194.85 421.68,200.68 419.34,203.84 L 419.34 203.82 C421.31,201.08 424.55,194.73 427.23,188.58 ZM 328.67 79.36 C326.75,78.69 326.63,78.02 328.75,75.05 C327.01,77.70 327.08,78.60 328.67,79.36 ZM 334.04 51.05 C332.89,51.88 331.70,53.19 331.03,54.51 C331.53,53.26 332.31,52.20 333.30,51.50 C333.54,51.34 333.78,51.18 334.04,51.05 ZM 342.48 83.75 C342.29,83.96 342.08,84.20 341.85,84.45 L 339.72 86.91 L 339.57 86.78 L 341.78 84.43 C341.99,84.22 342.22,83.99 342.48,83.75 ZM 407.43 165.31 C407.24,164.49 407.53,162.96 408.27,160.71 C407.75,162.60 407.44,164.33 407.43,165.31 ZM 336.00 83.83 L 337.15 84.82 L 335.61 83.57 C334.13,82.38 332.40,81.19 331.03,80.41 C332.58,81.23 334.55,82.58 336.00,83.83 ZM 405.68 177.88 C404.68,180.42 402.35,184.07 400.50,186.00 C402.35,184.07 404.68,180.40 405.68,177.84 C406.61,175.47 407.84,173.60 410.22,171.25 C407.98,173.50 406.60,175.54 405.68,177.88 ZM 354.34 105.13 C353.49,104.73 352.69,104.14 352.02,103.42 C352.19,103.57 352.38,103.73 352.58,103.88 C353.23,104.40 353.81,104.81 354.34,105.13 ZM 409.27 157.39 C409.62,156.00 409.83,154.73 409.91,153.60 C409.92,154.78 409.70,155.88 409.27,157.39 ZM 330.37 57.32 C330.32,58.69 330.51,60.22 330.90,61.23 C330.43,60.00 330.27,58.64 330.37,57.32 Z" fill="rgb(83,177,168)"/>
<path d="M 0.00 184.50 L 0.00 0.00 L 338.50 0.00 L 677.00 0.00 L 677.00 184.50 L 677.00 369.00 L 338.50 369.00 L 0.00 369.00 L 0.00 184.50 ZM 345.04 250.31 C348.00,247.82 348.19,247.28 347.68,242.97 L 347.13 238.32 L 353.82 231.79 C357.49,228.20 362.90,223.98 365.83,222.43 C368.77,220.87 372.14,218.44 373.33,217.03 C374.52,215.62 377.41,213.85 379.74,213.08 C382.07,212.32 384.73,210.85 385.65,209.83 C387.24,208.08 387.22,207.88 385.42,206.52 C383.15,204.80 381.36,204.61 380.50,206.00 C379.47,207.66 377.00,207.12 377.03,205.25 C377.07,203.20 379.30,200.00 380.69,200.00 C381.22,200.00 384.77,202.39 388.58,205.30 C394.02,209.48 395.56,211.24 395.79,213.55 C396.28,218.51 398.14,222.02 401.09,223.55 C405.20,225.67 407.42,225.35 410.89,222.10 C414.47,218.76 414.89,215.31 412.26,210.86 C410.25,207.46 407.47,206.50 402.37,207.46 C399.29,208.04 398.33,207.73 395.92,205.42 C393.91,203.50 393.32,202.24 393.90,201.10 C394.35,200.22 395.26,197.25 395.92,194.50 C396.70,191.29 398.33,188.25 400.50,186.00 C402.35,184.07 404.68,180.42 405.68,177.88 C406.98,174.57 409.20,171.85 413.50,168.31 C424.28,159.44 425.67,158.69 429.07,159.87 C434.74,161.85 440.00,157.69 440.00,151.21 C440.00,146.72 438.67,144.52 435.07,143.03 C432.91,142.13 431.24,142.07 429.16,142.79 C425.86,143.94 425.53,143.77 414.72,135.17 C409.92,131.34 407.44,128.51 405.96,125.17 C404.83,122.60 402.38,118.93 400.53,117.00 C398.53,114.93 396.87,111.99 396.47,109.80 C396.10,107.77 395.28,105.43 394.65,104.60 C393.64,103.28 393.23,103.33 391.23,104.98 C389.12,106.72 389.04,107.20 390.04,111.68 C390.64,114.38 392.27,117.71 393.74,119.25 C397.13,122.79 395.40,122.73 388.10,119.05 C383.51,116.73 382.13,115.50 381.71,113.30 C381.22,110.81 382.17,109.52 390.25,101.67 C398.78,93.38 399.54,92.88 402.64,93.46 C406.69,94.22 411.63,91.90 413.17,88.53 C414.67,85.24 413.37,79.37 410.74,77.53 C409.54,76.69 406.71,76.00 404.45,76.00 C398.76,76.00 395.72,79.25 396.13,84.89 C396.38,88.38 395.93,89.48 393.03,92.47 C390.02,95.57 389.45,95.81 388.04,94.53 C387.16,93.74 383.96,91.96 380.93,90.57 C377.90,89.18 374.09,86.64 372.46,84.93 C368.84,81.13 364.93,79.00 361.57,79.00 C359.92,79.00 357.91,77.72 355.77,75.32 C353.97,73.30 351.75,70.86 350.83,69.90 C347.78,66.72 347.00,64.24 347.63,59.66 C348.17,55.71 347.93,54.84 345.67,52.58 C342.67,49.58 336.78,49.07 333.30,51.50 C330.68,53.34 329.58,57.77 330.90,61.23 C331.77,63.52 331.26,64.62 326.43,70.83 C322.31,76.13 320.18,78.02 317.74,78.55 C312.61,79.65 307.24,82.76 304.84,86.01 C303.62,87.65 302.14,89.00 301.55,89.00 C299.94,89.00 290.76,93.97 288.67,95.97 C287.03,97.53 286.97,98.17 288.09,101.90 L 289.34 106.09 L 291.29 103.01 C293.04,100.25 298.64,96.31 299.54,97.20 C299.73,97.40 299.52,99.19 299.07,101.19 C298.37,104.31 298.52,104.90 300.14,105.33 C302.24,105.88 303.38,104.27 304.46,99.25 C304.84,97.46 305.35,96.00 305.59,96.00 C305.83,96.00 307.31,97.43 308.88,99.19 C313.62,104.50 312.22,106.61 300.95,111.10 C289.49,115.66 289.80,115.84 284.59,101.77 C281.47,93.35 281.07,91.30 281.62,86.60 C282.20,81.65 282.02,80.93 279.67,78.58 C274.97,73.88 266.47,75.78 264.51,81.98 C263.52,85.09 265.73,90.52 268.61,92.06 C270.02,92.81 272.55,93.45 274.24,93.47 C277.14,93.50 277.44,93.89 279.63,100.38 C282.70,109.46 282.45,111.67 277.80,116.56 C275.68,118.80 273.17,122.68 272.21,125.19 C270.81,128.91 268.80,131.09 261.49,136.87 C255.53,141.59 251.99,143.75 251.00,143.29 C247.88,141.87 242.99,142.66 240.50,145.00 C237.57,147.76 237.12,153.29 239.54,156.76 C241.48,159.53 246.62,160.97 250.20,159.76 C252.64,158.93 253.80,159.55 261.96,166.08 C269.18,171.85 271.25,174.10 272.17,177.17 C272.80,179.28 275.08,182.92 277.23,185.25 C279.39,187.59 281.40,190.85 281.72,192.50 C282.74,197.91 283.78,199.15 286.12,197.74 C287.92,196.66 288.12,195.81 287.65,191.07 C287.19,186.51 286.61,185.24 284.03,183.22 C278.82,179.15 274.58,167.99 278.25,168.01 C279.96,168.02 284.73,171.25 286.41,173.54 C287.58,175.15 288.15,175.25 290.39,174.23 C294.68,172.28 293.24,167.00 288.43,167.00 C285.45,167.00 277.21,162.27 275.89,159.79 C274.35,156.91 274.63,148.22 276.34,145.60 C277.41,143.97 277.66,141.60 277.26,136.70 C276.65,129.08 277.68,127.00 282.05,127.00 C285.47,127.00 287.62,128.99 288.50,132.99 C289.18,136.08 291.65,137.07 292.59,134.63 C292.88,133.88 292.49,131.74 291.73,129.88 C290.55,126.98 290.56,125.97 291.85,122.70 C293.04,119.68 294.39,118.40 298.42,116.51 C301.21,115.20 304.85,113.83 306.50,113.47 C309.42,112.83 309.38,112.93 304.72,117.41 C300.67,121.30 300.09,122.31 300.97,123.95 C301.54,125.02 302.49,126.18 303.07,126.54 C304.29,127.30 308.00,124.26 308.00,122.51 C308.00,121.86 309.46,119.73 311.25,117.78 C314.16,114.59 314.92,114.27 318.50,114.69 C322.14,115.12 323.03,115.88 328.45,123.10 C335.32,132.25 335.35,132.25 339.35,121.19 C341.48,115.33 342.00,112.11 342.00,104.91 C342.00,94.10 343.44,90.13 348.64,86.60 C355.70,81.80 366.11,84.38 369.94,91.89 C372.11,96.13 372.84,106.37 371.05,107.47 C369.40,108.49 363.73,101.28 363.45,97.83 C363.16,94.04 360.77,92.00 356.64,92.00 C352.60,92.00 350.00,94.58 350.00,98.58 C350.00,102.67 354.18,106.42 357.74,105.53 C361.47,104.59 367.00,109.38 367.00,113.54 C367.00,118.23 367.84,119.87 371.14,121.57 C373.49,122.79 374.75,122.85 377.87,121.92 C381.52,120.83 382.18,121.01 391.10,125.64 C400.23,130.36 400.51,130.61 400.81,134.25 L 401.12 138.00 L 397.55 135.90 C395.59,134.74 393.61,133.13 393.16,132.31 C392.64,131.39 391.23,130.96 389.41,131.17 C387.10,131.43 386.50,131.99 386.50,133.89 C386.50,136.41 386.91,136.73 393.81,139.58 C400.39,142.30 403.00,146.01 403.00,152.64 C403.00,155.66 402.48,159.11 401.84,160.30 C401.20,161.50 400.77,164.82 400.89,167.68 C401.07,172.15 400.77,173.10 398.78,174.41 C395.33,176.67 392.38,175.41 390.58,170.90 C388.11,164.74 384.66,166.72 386.86,173.03 C388.36,177.34 386.49,180.87 381.52,183.11 L 377.50 184.92 L 377.19 182.01 C376.84,178.74 373.77,177.11 371.51,178.99 C370.48,179.85 370.36,180.81 371.05,182.64 C372.54,186.54 372.29,186.98 367.37,189.16 C363.66,190.80 362.27,190.99 360.33,190.10 C359.00,189.50 357.11,189.00 356.13,189.00 C355.00,189.00 352.39,185.93 348.93,180.52 C345.94,175.85 343.24,172.03 342.92,172.02 C342.60,172.01 340.95,175.71 339.24,180.25 C336.67,187.09 336.09,190.24 335.82,198.68 C335.48,209.58 334.50,212.05 328.83,216.28 C325.24,218.96 318.18,218.89 313.72,216.14 C308.69,213.02 306.82,209.58 306.24,202.34 C305.78,196.68 305.92,196.00 307.56,196.00 C310.47,196.00 315.00,200.98 315.00,204.19 C315.00,205.73 315.90,207.90 317.00,209.00 C321.03,213.03 328.00,210.35 328.00,204.77 C328.00,200.49 325.48,198.00 321.14,198.00 C316.29,198.00 310.87,192.92 311.63,189.09 C312.46,184.94 308.78,181.00 304.08,181.00 C299.27,181.00 296.57,183.78 296.71,188.60 C296.80,191.82 296.05,192.77 287.79,199.97 C279.53,207.17 278.48,207.79 275.40,207.29 C269.36,206.31 264.00,210.22 264.00,215.60 C264.00,220.06 269.23,225.06 273.80,224.97 C277.75,224.89 281.95,219.24 282.08,213.82 C282.15,210.95 283.28,209.52 290.50,203.25 C295.08,199.26 299.55,196.00 300.42,196.00 C301.67,196.00 302.00,197.15 302.00,201.50 C302.00,206.28 301.75,207.00 300.06,207.00 C298.99,207.00 297.84,206.55 297.50,206.00 C296.62,204.57 293.82,204.82 291.56,206.53 C289.64,207.99 289.64,208.01 291.56,209.47 C292.63,210.28 295.52,211.71 298.00,212.63 C300.48,213.56 304.08,215.89 306.00,217.81 C315.00,226.80 326.13,227.19 335.16,218.85 C338.49,215.77 339.60,215.25 340.73,216.19 C342.77,217.89 344.23,215.31 343.40,211.50 C342.34,206.66 341.81,180.00 342.78,180.00 C343.27,180.00 345.10,182.22 346.86,184.93 C349.56,189.10 349.95,190.45 349.42,193.79 C349.04,196.15 349.27,198.63 349.98,199.96 C350.81,201.52 350.87,202.97 350.18,204.84 C349.63,206.30 347.15,212.90 344.67,219.50 C342.19,226.10 339.92,232.27 339.62,233.22 C339.33,234.16 337.49,235.60 335.55,236.42 C329.34,239.01 328.40,245.49 333.50,250.59 C336.73,253.82 340.99,253.72 345.04,250.31 ZM 325.00 245.62 C325.00,244.87 325.27,242.91 325.60,241.27 C326.17,238.41 326.02,238.26 321.96,237.61 C313.57,236.27 298.33,229.20 287.86,221.81 C286.50,220.85 285.75,221.16 283.64,223.57 C282.22,225.18 281.05,226.79 281.03,227.15 C280.97,228.35 297.21,238.23 303.41,240.77 C309.36,243.22 321.26,246.83 323.75,246.94 C324.44,246.97 325.00,246.38 325.00,245.62 ZM 362.00 244.99 C368.93,243.69 380.69,238.45 389.25,232.83 C393.51,230.04 397.00,227.44 397.00,227.06 C397.00,226.68 395.76,225.19 394.25,223.73 L 391.49 221.10 L 387.00 224.14 C379.72,229.07 370.05,233.62 360.95,236.39 L 352.45 238.99 L 352.84 243.08 C353.18,246.74 353.46,247.10 355.36,246.50 C356.54,246.14 359.52,245.46 362.00,244.99 ZM 265.43 204.65 L 268.35 202.31 L 266.17 199.23 C262.38,193.91 256.63,180.82 254.43,172.52 L 252.31 164.52 L 248.41 164.85 C246.26,165.04 244.32,165.37 244.09,165.59 C243.20,166.46 246.39,177.97 249.89,186.50 C253.53,195.38 260.25,207.00 261.74,207.00 C262.16,206.99 263.82,205.94 265.43,204.65 ZM 419.02 204.25 C423.94,198.00 431.84,178.83 433.46,169.21 L 434.18 165.00 L 429.77 165.00 L 425.37 165.00 L 423.61 172.46 C421.85,179.91 415.81,193.65 411.83,199.24 L 409.72 202.20 L 412.61 204.56 C416.27,207.56 416.42,207.55 419.02,204.25 ZM 329.23 189.17 C330.01,188.39 334.04,177.88 349.80,135.50 C353.69,125.05 357.17,115.71 357.54,114.75 C358.13,113.23 357.57,113.00 353.32,113.00 L 348.43 113.00 L 346.60 117.75 C344.47,123.24 338.89,138.56 335.56,148.00 C334.31,151.57 332.12,157.43 330.71,161.00 C322.93,180.73 320.05,189.41 321.08,190.05 C322.43,190.89 328.13,190.27 329.23,189.17 ZM 317.99 172.25 C317.98,166.59 317.92,166.46 313.86,164.00 C307.09,159.89 306.69,159.63 301.75,156.20 C299.14,154.39 297.00,152.50 297.00,152.01 C297.00,151.52 301.69,147.90 307.42,143.96 C317.65,136.93 319.72,134.44 318.50,130.58 C318.22,129.71 317.79,128.33 317.53,127.50 C317.03,125.90 308.19,131.22 291.20,143.35 C283.54,148.81 282.92,149.51 283.20,152.39 C283.47,155.20 285.10,156.57 300.33,166.75 C309.59,172.94 317.35,178.00 317.58,178.00 C317.81,178.00 318.00,175.41 317.99,172.25 ZM 378.16 166.45 L 394.00 155.91 L 394.00 152.08 C394.00,148.43 393.63,148.00 386.25,142.89 C370.12,131.74 361.25,126.00 360.14,126.00 C359.44,126.00 359.00,127.91 359.00,130.96 L 359.00 135.92 L 370.44 143.65 C376.73,147.90 381.66,151.74 381.39,152.17 C381.12,152.61 376.20,156.17 370.45,160.08 L 360.00 167.19 L 360.00 172.10 C360.00,175.15 360.44,177.00 361.16,177.00 C361.80,177.00 369.45,172.25 378.16,166.45 ZM 253.43 132.32 C255.98,122.17 260.62,110.90 265.08,104.00 C268.86,98.15 268.99,97.71 267.30,96.42 C263.55,93.57 261.72,93.61 259.32,96.62 C254.08,103.17 245.66,123.87 244.36,133.40 L 243.75 137.85 L 247.12 138.27 C248.98,138.49 250.78,138.75 251.13,138.84 C251.47,138.93 252.51,136.00 253.43,132.32 ZM 432.84 137.41 C436.94,136.13 427.02,107.96 418.35,96.29 L 415.97 93.09 L 412.48 95.14 C410.57,96.27 409.00,97.41 409.00,97.67 C409.00,97.93 410.36,100.12 412.03,102.54 C417.29,110.20 421.11,119.68 424.99,134.76 C426.13,139.21 426.60,139.37 432.84,137.41 ZM 297.80 73.10 C302.82,70.15 309.27,67.79 320.50,64.78 C325.42,63.47 325.51,63.37 325.81,59.22 C325.98,56.90 325.75,55.01 325.31,55.03 C324.86,55.04 320.74,55.90 316.14,56.94 C305.11,59.44 282.03,70.52 282.01,73.34 C282.00,73.80 283.01,75.44 284.25,76.98 C286.49,79.76 286.51,79.76 289.50,77.98 C291.15,77.00 294.88,74.80 297.80,73.10 ZM 395.96 73.35 C396.06,70.14 373.10,58.93 361.64,56.60 C357.32,55.72 353.38,55.00 352.89,55.00 C352.40,55.00 352.01,56.91 352.01,59.25 L 352.02 63.50 L 360.91 65.65 C369.47,67.72 383.77,74.10 388.89,78.13 L 391.37 80.08 L 393.65 77.29 C394.90,75.75 395.94,73.98 395.96,73.35 ZM 344.04 234.28 C344.02,233.61 346.54,226.52 349.64,218.53 C356.32,201.33 357.30,200.67 363.32,209.25 L 367.01 214.50 L 364.89 216.25 C363.73,217.21 361.59,218.06 360.14,218.14 C358.69,218.22 356.43,218.33 355.12,218.39 C352.13,218.53 350.30,222.51 352.63,223.81 C353.89,224.52 353.26,225.65 349.12,230.09 C346.35,233.06 344.06,234.95 344.04,234.28 ZM 366.12 206.15 C363.60,202.98 363.18,201.70 363.65,198.78 C364.19,195.41 364.66,195.06 373.69,191.12 C378.89,188.86 383.89,187.00 384.80,187.00 C385.84,187.00 384.16,189.30 380.22,193.28 C376.80,196.73 374.00,200.30 374.00,201.22 C374.00,202.13 373.58,203.14 373.08,203.45 C372.57,203.77 371.86,205.37 371.50,207.01 C371.14,208.66 370.46,210.00 370.00,210.00 C369.54,210.00 367.80,208.27 366.12,206.15 ZM 319.31 205.91 C317.57,204.17 318.89,202.00 321.68,202.00 C323.66,202.00 324.08,202.44 323.82,204.24 C323.46,206.76 321.05,207.65 319.31,205.91 ZM 385.41 197.47 C383.55,196.04 383.56,195.95 385.86,194.00 C387.16,192.90 388.62,192.00 389.11,192.00 C390.43,192.00 390.13,195.25 388.63,197.23 C387.46,198.76 387.11,198.79 385.41,197.47 ZM 407.55 166.07 C407.19,165.49 407.68,162.51 408.65,159.44 C410.32,154.15 410.32,153.52 408.70,147.18 C405.76,135.73 406.39,134.91 413.88,140.41 C420.54,145.30 422.24,147.48 422.48,151.48 C422.67,154.66 422.12,155.50 417.10,159.69 C414.02,162.26 410.76,164.99 409.85,165.75 C408.74,166.68 407.98,166.78 407.55,166.07 ZM 262.00 160.58 C256.16,155.63 255.59,154.80 255.49,151.13 C255.40,147.33 255.77,146.80 262.19,141.55 C265.93,138.50 269.44,136.00 269.99,136.00 C271.49,136.00 271.14,143.13 269.50,146.00 C267.62,149.28 267.62,155.86 269.50,160.35 C272.62,167.82 270.63,167.88 262.00,160.58 ZM 330.00 118.14 C326.17,113.33 325.47,111.76 325.28,107.50 C325.16,104.75 324.98,101.38 324.88,100.00 C324.66,96.81 328.94,86.81 330.33,87.28 C330.91,87.47 332.31,88.87 333.44,90.38 C335.25,92.81 335.54,94.88 335.85,107.68 C336.04,115.67 335.81,122.56 335.35,122.99 C334.88,123.42 332.48,121.23 330.00,118.14 ZM 376.98 107.45 C376.96,106.93 376.69,104.14 376.36,101.25 C375.95,97.59 376.13,96.00 376.94,96.00 C379.06,96.00 384.00,99.03 384.00,100.33 C384.00,101.80 377.01,108.88 376.98,107.45 ZM 355.15 101.09 C353.33,99.97 354.10,96.61 356.26,96.19 C357.22,96.00 358.29,96.60 358.64,97.50 C359.46,99.64 356.96,102.21 355.15,101.09 ZM 311.79 95.80 C308.49,91.90 308.33,91.42 309.67,89.38 C311.39,86.76 317.79,84.00 322.13,84.00 C324.99,84.00 325.17,84.20 324.55,86.75 C324.06,88.79 320.47,97.37 319.59,98.63 C319.54,98.69 318.57,99.04 317.43,99.39 C315.83,99.88 314.56,99.07 311.79,95.80 ZM 336.00 83.83 C334.08,82.17 331.23,80.35 329.69,79.78 C326.44,78.60 326.58,77.81 331.22,71.61 C334.21,67.60 334.87,67.22 338.73,67.27 C342.18,67.31 343.50,67.90 345.86,70.50 C348.81,73.74 351.43,77.94 350.83,78.46 C350.65,78.62 349.05,79.48 347.28,80.38 C345.51,81.28 343.04,83.11 341.78,84.43 L 339.50 86.85 L 336.00 83.83 Z" fill="rgb(254,254,254)"/>
</g>
</svg>