<svg xmlns="http://www.w3.org/2000/svg" width="1387" height="756" viewBox="0 0 1387 756">
<g>
<path d="M 590.41 398.10 C591.05,400.37 590.51,401.23 586.08,404.93 L 581.02 409.17 L 579.93 406.34 C578.22,401.84 576.00,392.79 576.00,390.29 C576.00,388.77 573.81,385.93 569.48,381.83 C564.70,377.31 561.89,373.53 558.98,367.71 C556.79,363.34 555.00,358.73 555.00,357.46 C555.00,355.67 550.98,352.00 536.75,340.79 C526.71,332.89 517.99,326.11 517.37,325.73 C516.75,325.35 514.81,325.75 513.06,326.62 C507.30,329.49 503.04,329.41 497.00,326.32 C493.91,324.74 490.55,322.07 489.33,320.23 C483.31,311.13 486.74,298.20 496.39,293.62 C500.74,291.56 509.20,291.54 513.16,293.58 C516.12,295.11 516.33,295.07 519.86,292.24 C521.86,290.64 530.25,284.02 538.50,277.55 L 553.50 265.77 L 556.00 258.63 C557.38,254.71 559.54,250.04 560.82,248.25 C563.03,245.15 564.25,244.13 563.79,245.75 C563.67,246.16 563.88,247.94 564.25,249.70 C565.01,253.28 567.71,255.13 572.99,255.71 C574.92,255.93 577.50,256.75 578.71,257.55 C579.93,258.35 581.85,259.00 582.96,259.00 C584.08,259.00 585.00,259.45 585.00,260.00 C585.00,261.33 582.61,261.26 577.74,259.80 C573.84,258.63 573.68,258.69 570.53,262.12 C566.17,266.88 565.29,273.47 567.59,284.13 L 569.29 291.99 L 565.98 298.19 C560.69,308.11 560.69,322.52 565.97,329.24 C569.28,333.44 585.36,342.00 589.94,342.00 C594.78,342.00 598.74,345.14 599.61,349.68 C600.91,356.47 591.66,360.75 586.60,355.69 C585.33,354.42 584.12,352.93 583.90,352.36 C583.40,351.09 569.83,343.00 568.19,343.00 C566.25,343.00 566.78,352.35 569.08,358.49 C571.84,365.85 576.38,371.64 583.05,376.30 L 588.50 380.10 L 589.09 387.80 C589.42,392.03 590.01,396.67 590.41,398.10 ZM 669.55 458.44 C661.46,460.66 656.92,460.90 650.26,459.47 C641.23,457.53 632.44,452.52 625.34,445.28 C620.16,440.00 618.14,438.67 612.76,437.01 C606.30,435.01 594.00,427.85 594.00,426.09 C594.00,425.56 595.98,423.51 598.40,421.53 L 602.80 417.93 L 609.23 421.46 C612.77,423.41 616.21,425.00 616.86,425.00 C617.74,425.00 617.99,421.75 617.78,412.75 C617.51,400.93 617.42,400.50 615.33,400.50 C613.94,400.50 606.47,406.42 594.60,416.93 C577.55,432.05 576.11,433.58 576.77,435.93 C578.53,442.25 577.09,448.69 572.84,453.53 C568.72,458.22 565.09,460.00 559.61,460.00 C551.42,460.00 545.42,456.11 541.90,448.50 C539.62,443.59 539.53,440.06 541.55,435.23 C545.73,425.23 556.16,420.68 565.95,424.60 L 569.95 426.20 L 607.77 393.05 L 607.29 386.77 C606.87,381.36 607.13,380.02 609.17,377.00 C615.57,367.55 630.04,367.67 636.07,377.24 C637.75,379.90 638.04,381.65 637.68,386.76 L 637.23 393.03 L 643.86 398.98 C650.48,404.91 650.52,404.93 655.52,404.36 C665.33,403.23 671.99,408.75 671.99,418.00 C671.99,429.20 661.31,436.11 652.04,430.90 C646.38,427.72 644.00,423.57 644.00,416.88 C644.00,411.52 643.97,411.48 637.49,405.68 C628.23,397.40 627.57,397.80 627.22,411.85 C626.96,422.01 627.18,423.71 629.32,428.38 C632.74,435.87 637.25,440.51 644.63,444.14 C659.14,451.28 675.78,446.06 683.91,431.83 L 686.73 426.90 L 688.83 431.37 C691.09,436.17 691.76,436.83 695.25,437.64 C698.55,438.40 699.25,438.39 701.90,437.54 C703.98,436.87 704.20,437.02 703.55,438.63 C703.13,439.66 702.35,441.74 701.80,443.25 C700.57,446.65 699.69,446.70 697.18,443.50 C696.10,442.12 694.79,441.00 694.27,441.00 C693.76,441.00 691.85,442.85 690.03,445.11 C685.86,450.30 676.11,456.65 669.55,458.44 ZM 666.58 500.49 C666.52,504.11 666.09,505.54 665.00,505.71 C662.69,506.06 638.56,499.60 628.58,495.95 C613.11,490.29 587.47,475.87 577.14,467.02 L 574.77 464.99 L 578.33 461.06 C580.29,458.89 582.62,455.71 583.51,453.98 C584.96,451.18 585.33,450.99 586.99,452.17 C612.45,470.39 633.16,480.21 658.33,486.02 L 668.17 488.29 L 667.41 491.89 C667.00,493.88 666.62,497.74 666.58,500.49 ZM 538.18 423.50 C537.10,424.87 535.96,426.00 535.65,426.00 C535.34,426.00 532.34,421.84 528.99,416.75 C516.41,397.69 505.60,371.56 501.06,349.28 C499.93,343.73 499.00,338.72 499.00,338.16 C499.00,337.56 500.35,337.34 502.25,337.64 C505.25,338.11 511.33,337.14 515.07,335.58 C516.34,335.05 516.87,336.17 517.86,341.52 C521.35,360.51 531.02,385.16 542.18,403.59 C545.93,409.78 549.00,415.06 549.00,415.33 C549.00,415.59 547.01,416.98 544.57,418.40 C542.14,419.83 539.26,422.12 538.18,423.50 ZM 699.22 517.96 C694.50,519.27 693.37,519.22 688.64,517.54 C680.75,514.72 675.71,507.65 675.71,499.37 C675.71,490.89 680.39,485.15 689.47,482.47 C693.45,481.29 693.52,481.18 697.64,470.08 C699.93,463.91 702.13,458.56 702.54,458.18 C702.94,457.81 703.06,458.17 702.81,458.99 C702.21,460.90 704.59,463.29 707.35,463.55 C708.11,463.62 708.65,463.60 708.92,463.86 C709.49,464.40 708.88,466.17 706.71,472.53 C706.50,473.12 706.29,473.75 706.06,474.42 C704.38,479.33 703.17,483.50 703.36,483.70 C703.56,483.89 706.31,481.09 709.48,477.48 C715.01,471.18 715.32,470.98 717.14,472.62 C718.18,473.56 720.34,474.33 721.94,474.33 C724.81,474.33 724.74,474.46 717.90,481.92 C712.60,487.69 711.09,489.98 711.55,491.50 C711.89,492.60 712.40,495.78 712.69,498.58 C713.58,507.14 707.70,515.60 699.22,517.96 ZM 649.00 363.00 C649.00,364.51 647.92,364.09 643.00,360.63 C640.53,358.89 625.34,348.57 609.25,337.69 L 580.00 317.92 L 580.00 304.39 L 585.75 300.35 C592.73,295.45 596.52,293.35 595.55,294.92 C594.31,296.93 600.02,302.42 605.25,304.23 C608.00,305.18 610.64,305.72 611.13,305.42 C611.61,305.13 612.00,305.33 612.00,305.88 C612.00,306.44 610.65,307.68 609.00,308.66 C607.35,309.63 606.02,310.67 606.04,310.97 C606.06,311.26 608.53,313.08 611.53,315.00 C617.19,318.63 618.45,320.19 614.99,319.29 C612.76,318.70 610.09,320.44 610.37,322.29 C610.76,324.82 612.14,325.85 616.04,326.51 C620.09,327.19 623.59,325.76 622.43,323.89 C621.42,322.25 623.29,322.98 628.16,326.10 C630.82,327.81 633.00,329.58 633.00,330.03 C633.00,330.48 633.79,331.04 634.75,331.26 C635.71,331.49 634.81,331.66 632.76,331.64 C628.56,331.60 627.19,332.89 623.98,339.93 C621.48,345.40 622.30,346.43 628.90,346.13 C631.62,346.01 635.42,346.57 637.34,347.37 C640.82,348.82 643.53,352.14 642.27,353.39 C640.51,355.16 641.23,358.03 643.92,359.94 C645.51,361.07 647.30,362.00 647.90,362.00 C648.51,362.00 649.00,362.45 649.00,363.00 ZM 518.03 274.86 C516.98,280.01 515.98,284.34 515.81,284.48 C515.64,284.63 514.60,284.39 513.50,283.94 C512.40,283.50 508.69,283.11 505.25,283.07 C504.90,283.07 504.56,283.06 504.24,283.06 C501.88,283.05 500.45,283.04 499.71,282.32 C498.57,281.19 499.13,278.35 500.55,271.09 C500.67,270.46 500.80,269.79 500.93,269.09 C503.46,256.05 509.84,237.12 516.12,224.00 L 521.14 213.50 L 522.47 216.50 C524.43,220.95 530.35,225.20 533.48,224.42 C534.86,224.07 536.00,224.00 536.00,224.26 C536.00,224.52 533.98,228.99 531.52,234.19 C526.13,245.57 520.64,262.12 518.03,274.86 ZM 541.87 332.75 C547.61,337.29 552.74,341.00 553.26,341.00 C554.67,341.00 553.50,333.26 551.14,327.00 C547.81,318.17 548.22,307.52 552.27,297.50 C555.24,290.13 555.43,289.04 554.58,283.72 C554.08,280.54 553.32,278.07 552.89,278.22 C552.46,278.37 545.57,283.67 537.58,290.00 L 523.05 301.50 L 523.25 307.50 C523.35,310.80 523.13,314.40 522.76,315.50 C522.22,317.09 523.05,318.23 526.75,321.00 C529.32,322.92 536.12,328.21 541.87,332.75 ZM 653.41 421.51 C654.54,423.23 655.95,424.00 658.00,424.00 C663.96,424.00 666.12,414.82 660.48,413.41 C654.06,411.79 650.06,416.38 653.41,421.51 ZM 674.50 389.00 C673.80,390.13 655.00,390.40 655.00,389.28 C655.00,387.83 658.29,380.00 658.89,380.05 C659.22,380.07 660.85,381.85 662.50,384.00 C665.24,387.57 665.92,387.91 670.31,387.95 C673.25,387.98 674.88,388.39 674.50,389.00 ZM 722.50 489.99 C723.15,491.05 721.53,492.20 720.64,491.31 C718.92,489.58 720.42,488.16 724.63,487.53 C727.17,487.15 729.99,486.58 730.88,486.26 C731.77,485.95 731.29,486.67 729.80,487.87 C728.03,489.31 726.23,489.90 724.53,489.59 C723.12,489.34 722.20,489.52 722.50,489.99 ZM 709.34 446.75 C709.59,447.16 708.73,448.30 707.43,449.27 L 705.08 451.04 L 706.50 446.99 C707.95,442.90 710.52,438.06 709.69,441.00 C709.46,441.83 709.68,443.29 710.17,444.25 C710.76,445.40 710.69,446.00 709.98,446.00 C709.37,446.00 709.09,446.34 709.34,446.75 ZM 726.29 504.68 C726.01,505.41 724.93,506.00 723.89,506.00 C722.24,506.00 722.02,505.28 722.16,500.25 C722.26,496.65 722.47,495.73 722.73,497.78 C722.95,499.59 723.96,501.58 724.97,502.21 C725.97,502.84 726.57,503.95 726.29,504.68 ZM 705.51 489.37 C707.44,491.29 709.00,490.68 709.00,488.00 C709.00,485.39 707.10,484.47 705.33,486.24 C704.03,487.54 704.05,487.91 705.51,489.37 ZM 596.71 277.38 C596.10,279.21 593.30,279.23 592.60,277.41 C591.76,275.22 592.10,274.95 594.83,275.67 C596.07,275.99 596.91,276.76 596.71,277.38 ZM 716.42 447.36 C715.62,449.43 713.00,449.52 713.00,447.47 C713.00,445.96 715.64,444.30 716.57,445.23 C716.83,445.50 716.76,446.45 716.42,447.36 ZM 588.87 263.92 C589.59,264.36 590.02,265.79 589.84,267.08 C589.51,269.39 589.47,269.38 588.21,266.59 C586.77,263.40 586.94,262.73 588.87,263.92 ZM 650.93 363.25 C651.00,365.96 650.53,366.71 649.68,365.25 C649.45,364.84 649.61,363.60 650.05,362.50 C650.76,360.75 650.87,360.85 650.93,363.25 Z" fill="rgb(22,48,82)"/>
<path d="M 711.49 491.17 C711.32,489.64 712.97,487.29 717.90,481.92 C724.74,474.46 724.81,474.33 721.94,474.33 C720.34,474.33 718.18,473.56 717.14,472.62 C715.32,470.98 715.01,471.18 709.48,477.48 C707.22,480.05 705.18,482.21 704.12,483.17 C704.69,482.62 705.45,481.84 706.28,480.93 C719.86,465.86 724.00,461.02 724.00,460.18 C724.00,459.65 722.88,458.93 721.50,458.59 C718.55,457.85 718.45,457.00 720.68,451.17 L 722.36 446.76 L 726.93 447.30 C734.98,448.25 749.26,444.09 750.68,440.38 C750.97,439.63 747.69,434.29 743.39,428.51 C735.89,418.42 735.42,418.00 731.82,418.00 C729.27,418.00 727.77,418.56 727.14,419.75 C725.99,421.93 721.52,433.33 716.73,445.93 C716.74,445.61 716.68,445.35 716.57,445.23 C715.64,444.30 713.00,445.96 713.00,447.47 C713.00,449.15 714.76,449.39 715.84,448.28 C711.43,459.92 706.92,472.16 704.61,478.85 C705.02,477.53 705.51,476.01 706.06,474.42 C706.29,473.75 706.50,473.12 706.71,472.53 C708.88,466.17 709.49,464.40 708.92,463.86 C708.65,463.60 708.11,463.62 707.35,463.55 C704.59,463.29 702.21,460.90 702.81,458.99 C703.06,458.17 702.94,457.81 702.54,458.18 C702.13,458.56 699.93,463.91 697.64,470.08 C696.73,472.54 696.02,474.46 695.42,475.97 C695.70,475.22 696.01,474.37 696.36,473.39 C697.94,469.05 701.69,459.20 704.69,451.50 C707.69,443.80 712.12,432.31 714.54,425.96 L 718.94 414.41 L 716.47 409.54 C713.50,403.66 713.37,400.16 715.93,395.13 L 717.87 391.34 L 710.18 379.69 C705.96,373.29 702.16,368.03 701.75,368.02 C701.34,368.01 701.00,380.63 701.00,396.06 C701.00,422.45 701.13,424.42 703.12,429.06 L 705.24 434.00 L 703.85 437.72 C703.99,437.00 703.48,437.03 701.90,437.54 C699.25,438.39 698.55,438.40 695.25,437.64 C691.76,436.83 691.09,436.17 688.83,431.37 L 686.73 426.90 L 683.91 431.83 C677.50,443.06 665.79,448.67 654.01,447.04 C665.92,448.50 678.46,442.92 684.69,430.21 C687.42,424.66 687.50,423.97 687.82,405.50 L 688.15 386.50 L 694.07 370.17 C697.33,361.19 700.39,353.13 700.87,352.26 C701.56,351.04 704.28,354.45 712.88,367.32 C719.00,376.47 724.00,384.39 724.00,384.91 C724.00,385.44 723.10,386.15 722.00,386.50 C720.90,386.85 720.00,387.55 720.00,388.07 C720.00,389.53 723.84,393.00 725.45,393.00 C727.92,393.00 732.00,395.25 732.00,396.62 C732.00,398.52 739.42,406.00 741.30,406.00 C742.18,406.00 743.34,405.22 743.88,404.26 C745.62,401.14 746.16,403.69 744.56,407.51 C743.70,409.57 743.00,411.60 743.00,412.02 C743.00,413.27 756.97,431.00 757.95,431.00 C758.44,431.00 759.00,430.51 759.20,429.91 C759.40,429.30 761.46,430.65 763.78,432.91 C766.10,435.16 768.45,437.00 769.00,437.00 C770.47,437.00 770.28,437.46 767.25,441.14 C759.80,450.20 749.51,457.33 740.68,459.54 C738.81,460.01 733.38,465.12 724.39,474.87 C714.44,485.67 711.43,489.44 711.49,491.17 ZM 596.71 277.38 C596.91,276.76 596.07,275.99 594.83,275.67 C592.70,275.11 592.02,275.15 592.23,276.24 C591.22,274.27 589.92,271.08 587.93,266.25 C586.32,262.38 585.23,261.00 583.74,261.00 C583.50,261.00 583.17,260.97 582.79,260.92 C584.27,261.04 585.00,260.73 585.00,260.00 C585.00,259.45 584.08,259.00 582.96,259.00 C581.85,259.00 579.93,258.35 578.71,257.55 C577.50,256.75 574.92,255.93 572.99,255.71 C567.71,255.13 565.01,253.28 564.25,249.70 C563.88,247.94 563.67,246.16 563.79,245.75 C564.20,244.28 563.24,244.99 561.40,247.45 C563.27,244.73 565.69,241.82 569.10,238.00 C575.23,231.15 575.86,230.02 576.43,225.00 C576.98,220.11 576.50,217.94 572.14,205.50 L 567.23 191.50 L 560.21 191.50 C554.01,191.50 552.68,191.15 548.94,188.50 C543.41,184.58 541.00,179.94 541.00,173.22 C541.00,167.27 542.48,163.77 546.66,159.81 C550.28,156.39 553.99,155.00 559.50,155.00 C567.54,155.00 572.80,158.33 576.11,165.50 C578.41,170.49 578.47,174.21 576.35,180.13 L 574.69 184.77 L 579.53 198.63 C582.19,206.26 585.67,216.42 587.28,221.20 C589.54,227.97 590.90,230.45 593.38,232.34 L 596.58 234.78 L 607.47 230.40 C608.16,230.12 608.81,229.86 609.44,229.61 C618.40,226.00 621.06,224.93 621.49,225.52 C621.67,225.76 621.46,226.30 621.17,227.07 C621.12,227.20 621.07,227.33 621.01,227.47 C620.24,229.50 620.35,230.20 621.51,230.64 C624.89,231.94 622.41,233.89 611.59,238.44 C600.46,243.12 600.16,243.33 599.50,246.87 C599.13,248.87 597.97,251.90 596.92,253.62 C594.33,257.82 594.48,259.66 598.07,267.65 L 601.13 274.48 L 598.32 276.74 C598.17,276.85 598.03,276.96 597.90,277.07 C596.42,278.26 595.47,279.02 594.62,278.93 C594.40,278.90 594.17,278.81 593.95,278.66 C595.01,278.99 596.31,278.56 596.71,277.38 ZM 674.60 388.84 C674.59,388.86 674.57,388.88 674.54,388.90 C674.70,388.35 673.09,387.98 670.31,387.95 C665.92,387.91 665.24,387.57 662.50,384.00 C660.85,381.85 659.22,380.07 658.89,380.05 C658.47,380.02 656.74,383.83 655.73,386.62 C657.63,380.83 662.60,368.28 663.35,367.80 C663.95,367.42 664.18,366.84 663.85,366.52 C663.30,365.97 682.18,314.49 683.35,313.31 C683.91,312.76 684.45,313.14 690.52,318.36 C692.74,320.27 695.71,321.98 697.13,322.16 L 699.72 322.50 L 687.52 355.09 C680.81,373.01 674.99,388.20 674.60,388.84 ZM 722.50 489.99 C722.20,489.52 723.12,489.34 724.53,489.59 C726.23,489.90 728.03,489.31 729.80,487.87 C731.29,486.67 731.77,485.95 730.88,486.26 C729.99,486.58 727.17,487.15 724.63,487.53 C724.47,487.56 724.31,487.58 724.16,487.61 C725.22,487.34 726.55,487.04 728.20,486.67 C749.88,481.89 772.68,472.07 791.08,459.58 C797.22,455.41 802.62,452.00 803.09,452.00 C803.55,452.00 804.41,452.90 805.00,454.00 C806.34,456.51 804.54,456.74 803.06,454.25 C802.12,452.68 801.71,452.85 798.97,456.00 C793.38,462.44 792.66,463.00 790.08,463.02 C788.66,463.03 786.46,463.84 785.20,464.82 L 782.89 466.59 L 785.02 469.30 C786.19,470.78 787.68,472.00 788.33,472.00 C788.98,472.00 790.12,473.38 790.87,475.06 C791.76,477.09 792.72,477.94 793.70,477.56 C794.58,477.23 795.00,477.49 794.76,478.21 C794.18,479.97 774.17,490.33 762.50,494.92 C757.00,497.08 747.78,500.02 742.00,501.45 C736.22,502.88 729.87,504.49 727.88,505.02 C726.99,505.27 726.07,505.49 725.29,505.66 C725.77,505.42 726.14,505.07 726.29,504.68 C726.57,503.95 725.97,502.84 724.97,502.21 C723.96,501.58 722.95,499.59 722.73,497.78 C722.47,495.73 722.26,496.65 722.16,500.25 C722.13,501.20 722.12,502.00 722.13,502.67 C721.95,501.67 721.80,500.50 721.70,499.25 C721.44,496.22 721.04,493.04 720.72,491.38 C721.62,492.13 723.13,491.02 722.50,489.99 ZM 610.25 307.83 C611.28,307.06 612.00,306.29 612.00,305.88 C612.00,305.33 611.61,305.13 611.13,305.42 C610.64,305.72 608.00,305.18 605.25,304.23 C600.02,302.42 594.31,296.93 595.55,294.92 C596.29,293.72 594.27,294.65 590.20,297.32 L 610.25 283.75 C646.03,259.54 646.64,259.15 645.67,260.71 C644.97,261.86 647.53,265.28 649.72,266.12 C650.26,266.33 650.97,269.47 651.30,273.10 L 651.90 279.70 L 629.20 295.01 C621.43,300.25 614.47,304.97 610.25,307.83 ZM 522.48 257.92 C525.12,249.44 528.34,240.91 531.52,234.19 C533.98,228.99 536.00,224.52 536.00,224.26 C536.00,224.00 534.86,224.07 533.48,224.42 C530.35,225.20 524.43,220.95 522.47,216.50 L 521.25 213.73 C524.12,208.02 526.43,204.00 527.09,204.00 C527.62,204.00 528.47,202.89 528.99,201.54 C530.32,198.02 535.10,191.00 536.16,191.00 C536.83,191.00 548.37,197.78 550.88,199.64 C551.09,199.80 548.47,204.23 545.06,209.49 C535.82,223.75 527.79,241.10 522.48,257.92 ZM 649.00 363.00 C649.00,362.45 648.51,362.00 647.90,362.00 C647.30,362.00 645.51,361.07 643.92,359.94 C641.23,358.03 640.51,355.16 642.27,353.39 C643.53,352.14 640.82,348.82 637.34,347.37 C635.42,346.57 631.62,346.01 628.90,346.13 C622.30,346.43 621.48,345.40 623.98,339.93 C627.19,332.89 628.56,331.60 632.76,331.64 C634.81,331.66 635.71,331.49 634.75,331.26 C633.79,331.04 633.00,330.48 633.00,330.03 C633.00,329.79 632.40,329.19 631.43,328.42 C639.75,334.12 647.06,339.20 647.55,339.70 C648.27,340.41 649.29,341.00 649.82,341.00 C651.54,341.00 652.00,343.97 652.00,355.08 C652.00,361.09 651.66,365.97 651.25,365.93 C651.21,365.93 651.04,365.83 650.73,365.65 C650.89,365.23 650.96,364.42 650.93,363.25 C650.87,360.85 650.76,360.75 650.05,362.50 C649.70,363.39 649.52,364.37 649.59,364.93 C648.96,364.52 648.16,364.00 647.20,363.38 C648.60,364.12 649.00,363.92 649.00,363.00 ZM 594.98 213.75 C593.78,216.09 592.68,218.00 592.53,218.00 C592.38,218.00 591.06,214.36 589.59,209.90 L 586.91 201.80 L 589.43 198.50 C591.80,195.39 603.22,187.00 605.08,187.00 C605.55,187.00 605.70,187.63 605.40,188.39 C605.10,189.17 606.50,191.36 608.60,193.40 C610.64,195.39 612.14,197.16 611.91,197.33 C611.68,197.51 609.92,198.60 608.00,199.76 C603.18,202.67 597.60,208.67 594.98,213.75 ZM 627.55 256.55 C622.80,261.29 615.00,258.08 615.00,251.38 C615.00,247.55 618.62,243.00 621.66,243.00 C622.63,243.00 625.91,240.38 628.96,237.17 C632.01,233.97 633.73,232.29 632.79,233.45 C631.82,234.64 631.30,236.44 631.60,237.59 C632.02,239.20 632.76,239.54 635.07,239.20 C636.68,238.97 638.00,239.11 638.00,239.52 C638.00,239.94 636.20,242.23 634.00,244.62 C631.50,247.33 630.00,249.92 630.00,251.52 C630.00,252.94 628.90,255.20 627.55,256.55 ZM 623.94 201.78 L 619.33 215.50 L 615.25 215.80 C613.02,215.97 610.92,215.68 610.59,215.15 C609.95,214.12 613.67,201.05 615.00,199.64 C615.45,199.17 616.28,199.66 616.85,200.73 C617.63,202.18 618.66,202.56 620.92,202.23 ZM 626.66 325.16 C622.91,322.85 621.53,322.43 622.43,323.89 C623.59,325.76 620.09,327.19 616.04,326.51 C612.14,325.85 610.76,324.82 610.37,322.29 C610.09,320.44 612.76,318.70 614.99,319.29 C618.45,320.19 617.19,318.63 611.53,315.00 C610.19,314.14 608.95,313.30 607.99,312.61 C611.11,314.61 618.85,319.83 626.66,325.16 ZM 709.34 446.75 C709.09,446.34 709.37,446.00 709.98,446.00 C710.69,446.00 710.76,445.40 710.17,444.25 C709.68,443.29 709.46,441.83 709.69,441.00 C710.52,438.06 707.95,442.90 706.50,446.99 L 705.08 451.04 L 707.43 449.27 C708.73,448.30 709.59,447.16 709.34,446.75 ZM 705.51 489.37 C704.05,487.91 704.03,487.54 705.33,486.24 C707.10,484.47 709.00,485.39 709.00,488.00 C709.00,490.68 707.44,491.29 705.51,489.37 ZM 766.26 416.90 C766.59,418.15 765.90,419.60 764.30,420.99 C762.11,422.89 761.88,422.93 762.36,421.32 C762.66,420.32 763.20,418.27 763.56,416.76 C764.27,413.77 765.46,413.84 766.26,416.90 ZM 634.52 220.98 C633.51,222.09 631.56,223.00 630.18,223.00 C627.10,223.00 627.42,222.66 632.42,220.58 C636.34,218.96 636.35,218.96 634.52,220.98 ZM 588.87 263.92 C586.94,262.73 586.77,263.40 588.21,266.59 C589.47,269.38 589.51,269.39 589.84,267.08 C590.02,265.79 589.59,264.36 588.87,263.92 ZM 641.66 359.70 C635.04,355.29 625.60,348.92 615.25,341.87 L 590.01 324.69 L 609.25 337.69 C623.49,347.32 637.02,356.51 641.66,359.70 ZM 559.59 250.32 C558.41,252.56 557.00,255.79 556.00,258.63 L 553.50 265.77 L 544.58 272.78 C553.54,265.64 553.85,264.78 555.66,259.41 C556.88,255.82 558.03,253.04 559.59,250.32 ZM 694.47 441.04 C693.99,441.29 692.39,442.72 690.39,444.67 C692.09,442.61 693.79,441.00 694.27,441.00 C694.33,441.00 694.40,441.01 694.47,441.04 ZM 637.35 439.45 C633.97,436.56 631.44,433.01 629.32,428.38 C628.88,427.43 628.53,426.60 628.24,425.80 C628.66,426.90 629.23,428.09 629.99,429.62 C631.92,433.55 634.44,436.83 637.35,439.45 ZM 499.00 281.04 C499.00,279.05 499.69,274.92 500.77,269.93 C500.69,270.33 500.62,270.71 500.55,271.09 C499.13,278.35 498.57,281.19 499.71,282.32 C499.97,282.57 500.31,282.73 500.74,282.84 C499.27,282.60 499.00,282.09 499.00,281.04 ZM 655.00 389.30 C655.14,389.93 661.27,390.11 666.62,389.93 C661.19,390.18 655.00,390.05 655.00,389.37 C655.00,389.35 655.00,389.33 655.00,389.30 ZM 586.75 299.65 C586.42,299.88 586.09,300.11 585.75,300.35 L 580.00 304.39 L 580.00 304.22 ZM 509.10 240.93 C507.72,244.70 506.43,248.54 505.27,252.31 C505.88,250.22 506.50,248.21 507.12,246.36 C507.65,244.77 508.32,242.93 509.10,240.93 ZM 545.61 428.94 C550.77,423.47 558.51,421.62 565.95,424.60 C558.54,421.63 550.77,423.52 545.61,428.94 ZM 668.73 458.66 C666.94,459.21 665.13,459.62 663.34,459.90 C662.75,459.99 662.16,460.07 661.57,460.13 C663.71,459.87 666.02,459.38 668.73,458.66 ZM 606.53 310.37 C607.05,309.91 607.96,309.27 609.00,308.66 C609.09,308.61 609.18,308.55 609.27,308.50 C608.00,309.36 607.06,310.00 606.53,310.37 ZM 700.24 445.79 C700.12,445.93 700.02,446.00 699.95,446.00 C699.79,446.00 699.52,445.85 699.18,445.59 C699.59,445.85 699.93,445.91 700.24,445.79 ZM 627.17 413.75 C627.18,413.15 627.20,412.52 627.22,411.85 C627.57,397.80 628.23,397.40 637.49,405.68 C628.22,397.39 627.57,397.79 627.22,411.97 C627.20,412.60 627.19,413.19 627.17,413.75 ZM 723.08 505.89 C723.21,505.94 723.35,505.97 723.51,505.98 C723.41,505.99 723.33,506.00 723.27,506.00 C723.21,506.00 723.14,505.96 723.08,505.89 Z" fill="rgb(34,79,107)"/>
<path d="M 768.28 439.87 C770.30,437.35 770.28,437.00 769.00,437.00 C768.45,437.00 766.10,435.16 763.78,432.91 C761.46,430.65 759.40,429.30 759.20,429.91 C759.01,430.47 758.50,430.94 758.03,431.00 C758.59,430.82 760.59,425.76 762.53,419.60 L 766.12 408.19 L 778.60 396.06 C789.97,385.01 792.09,382.04 788.69,381.98 C788.04,381.97 778.16,385.88 766.75,390.68 C748.17,398.49 746.00,399.64 746.00,401.73 C746.00,402.70 745.62,404.44 745.08,406.09 C746.00,403.12 745.40,401.54 743.88,404.26 C743.34,405.22 742.18,406.00 741.30,406.00 C739.42,406.00 732.00,398.52 732.00,396.62 C732.00,395.25 727.92,393.00 725.45,393.00 C723.84,393.00 720.00,389.53 720.00,388.07 C720.00,387.55 720.90,386.85 722.00,386.50 C723.10,386.15 724.00,385.44 724.00,384.91 C724.00,384.51 721.07,379.78 716.96,373.48 C721.47,380.12 725.13,385.21 725.81,385.75 C726.67,386.44 728.95,387.00 730.88,387.00 C732.80,387.00 736.31,387.94 738.67,389.08 L 742.98 391.17 L 750.24 387.73 C754.23,385.83 758.47,383.98 759.66,383.60 C763.04,382.54 763.38,380.00 760.53,377.03 C757.31,373.67 757.16,368.86 760.19,366.04 C765.39,361.20 772.76,365.82 771.59,373.19 C771.26,375.22 771.41,377.13 771.91,377.44 C772.41,377.75 776.12,376.75 780.16,375.22 C786.17,372.94 787.80,371.84 789.16,369.15 C790.07,367.34 791.53,365.07 792.41,364.10 C794.49,361.80 794.43,360.69 791.77,353.29 L 789.55 347.08 L 792.46 344.04 C794.06,342.37 795.70,341.00 796.09,341.00 C796.49,341.00 798.15,344.70 799.78,349.22 L 802.75 357.44 L 807.91 358.75 C812.93,360.02 813.16,359.98 816.73,357.28 C818.75,355.75 820.08,355.03 819.68,355.68 C819.29,356.33 819.42,357.14 819.98,357.49 C820.54,357.84 821.00,359.39 821.00,360.94 C821.00,364.75 823.25,366.37 829.31,366.93 C831.15,367.09 824.20,377.53 819.21,382.09 C816.26,384.79 813.49,387.00 813.06,387.00 C812.64,387.00 812.02,389.83 811.70,393.30 C811.38,396.76 809.93,402.73 808.49,406.55 C807.05,410.37 805.66,414.17 805.41,415.00 C805.11,415.95 807.20,418.29 811.07,421.36 L 817.20 426.21 L 822.68 424.49 C826.03,423.44 829.73,422.97 832.16,423.29 C841.61,424.56 848.69,433.51 847.77,443.04 C846.12,460.18 824.80,466.10 814.31,452.33 C811.80,449.04 811.50,447.84 811.50,441.01 L 811.50 433.36 L 804.04 427.43 C786.56,413.52 779.93,408.81 778.56,409.34 C777.76,409.64 776.44,410.93 775.62,412.20 C773.72,415.10 771.39,423.72 772.26,424.59 C772.61,424.95 775.44,423.81 778.53,422.07 L 784.15 418.90 L 789.07 422.65 C791.78,424.72 794.00,426.72 794.00,427.10 C794.00,429.20 780.91,435.77 772.38,437.95 C770.71,438.38 769.43,438.95 768.28,439.87 ZM 623.94 201.78 L 620.92 202.23 C618.66,202.56 617.63,202.18 616.85,200.73 C616.28,199.66 615.45,199.17 615.00,199.64 C614.69,199.97 614.24,200.95 613.75,202.27 C614.86,198.64 615.55,196.00 615.35,196.00 C615.12,196.00 613.07,196.94 610.82,198.09 C610.62,198.19 610.42,198.30 610.22,198.41 C611.13,197.85 611.78,197.44 611.91,197.33 C612.14,197.16 610.64,195.39 608.60,193.40 C606.50,191.36 605.10,189.17 605.40,188.39 C605.68,187.67 605.57,187.08 605.17,187.01 C608.55,185.23 611.91,183.81 614.63,183.09 C617.83,182.23 619.69,180.78 622.86,176.68 C626.67,171.74 632.37,166.93 637.77,164.10 C640.62,162.60 657.08,159.05 656.46,160.07 C655.59,161.48 657.21,164.00 658.99,164.00 C660.09,164.00 660.95,164.95 661.24,166.50 C661.51,167.88 661.31,169.00 660.80,169.00 C660.30,169.00 660.16,169.45 660.50,170.00 C660.84,170.55 660.17,171.00 659.02,171.00 C655.13,171.00 643.97,175.17 639.36,178.35 C636.85,180.08 633.96,182.86 632.94,184.53 L 631.08 187.56 L 638.17 195.85 L 645.26 204.13 L 649.38 203.46 C651.65,203.10 653.79,202.50 654.14,202.15 C654.50,201.79 657.14,195.99 660.01,189.25 C662.88,182.51 665.71,177.00 666.29,177.00 C666.88,177.00 668.80,177.52 670.56,178.16 L 673.77 179.32 L 662.79 205.95 L 665.40 211.17 C668.43,217.25 668.51,218.29 666.49,224.04 C665.98,225.47 665.54,226.34 665.48,227.23 C665.34,229.20 667.05,231.31 674.04,239.89 C674.94,240.99 675.92,242.19 677.00,243.52 L 686.50 255.22 L 687.18 250.86 C687.55,248.46 687.92,240.43 688.00,233.00 C688.09,224.46 688.46,220.24 689.00,221.50 C689.47,222.60 689.89,222.90 689.93,222.17 C690.08,219.38 695.00,226.87 695.00,229.89 C695.00,231.71 695.87,233.87 697.09,235.09 L 699.18 237.18 L 693.54 252.34 C690.43,260.68 687.66,268.17 687.37,269.00 C686.73,270.82 684.34,268.11 669.31,248.44 L 658.57 234.38 L 654.03 234.37 C651.54,234.37 648.30,234.06 646.84,233.69 C644.45,233.08 643.45,233.83 637.09,241.04 C636.98,241.16 636.88,241.28 636.78,241.39 C637.53,240.44 638.00,239.74 638.00,239.52 C638.00,239.11 636.68,238.97 635.07,239.20 C632.76,239.54 632.02,239.20 631.60,237.59 C631.30,236.44 631.82,234.64 632.79,233.45 C633.73,232.29 632.01,233.97 628.96,237.17 C625.91,240.38 622.63,243.00 621.66,243.00 C621.45,243.00 621.24,243.02 621.03,243.06 C621.26,243.02 621.48,242.99 621.70,242.99 C622.69,242.98 626.42,239.74 630.00,235.79 C633.58,231.83 635.60,228.96 634.50,229.40 C633.40,229.84 631.15,230.65 629.50,231.20 C627.85,231.75 620.57,234.70 613.33,237.75 C600.63,243.12 600.16,243.37 599.53,246.72 C600.17,243.33 600.62,243.06 611.59,238.44 C622.41,233.89 624.89,231.94 621.51,230.64 C620.35,230.20 620.24,229.50 621.01,227.47 C621.07,227.33 621.12,227.20 621.17,227.07 C621.46,226.30 621.67,225.76 621.49,225.52 C621.25,225.20 620.36,225.37 618.15,226.17 L 635.49 219.30 L 638.14 209.91 L 632.82 203.51 C629.89,200.00 627.03,197.09 626.46,197.06 C626.02,197.03 624.83,199.49 623.55,202.95 ZM 595.21 158.33 C590.65,161.45 586.59,164.00 586.19,164.00 C585.79,164.00 584.57,162.33 583.48,160.30 C582.39,158.26 580.05,155.14 578.29,153.37 L 575.07 150.14 L 579.79 146.75 C593.28,137.06 612.43,127.28 629.36,121.43 C641.04,117.40 643.00,117.61 642.24,122.85 C641.81,125.75 642.95,126.97 649.50,130.61 C650.60,131.22 651.30,132.12 651.06,132.61 C650.81,133.10 646.31,134.77 641.06,136.32 C629.09,139.84 606.12,150.87 595.21,158.33 ZM 699.63 322.49 L 697.13 322.16 C695.71,321.98 692.74,320.27 690.52,318.36 C684.45,313.14 683.91,312.76 683.35,313.31 C682.18,314.49 663.30,365.97 663.85,366.52 C664.18,366.84 663.95,367.42 663.35,367.80 C662.87,368.11 660.65,373.38 658.62,378.65 C660.56,373.44 662.63,368.24 662.98,368.00 C663.37,367.73 663.71,366.83 663.72,366.00 C663.75,364.63 670.52,346.18 695.09,280.56 C700.02,267.39 704.24,256.43 704.48,256.19 C704.71,255.95 705.64,256.49 706.53,257.39 C707.43,258.29 708.53,258.79 708.99,258.51 C709.44,258.23 711.22,260.14 712.95,262.75 C714.68,265.36 716.91,267.73 717.91,268.00 C719.55,268.45 718.73,271.22 710.05,294.50 C707.33,301.81 703.53,312.01 699.63,322.49 ZM 781.45 335.20 C780.72,337.00 737.42,366.08 736.63,365.30 C736.28,364.95 736.01,359.68 736.02,353.58 L 736.04 342.50 L 752.27 331.57 C761.20,325.56 767.73,321.53 766.79,322.61 C765.13,324.51 765.18,324.59 768.10,324.81 C771.82,325.09 773.86,326.62 778.09,332.26 C779.23,333.78 780.57,334.77 781.07,334.46 C781.57,334.15 781.74,334.48 781.45,335.20 ZM 793.38 479.46 C794.19,478.90 794.68,478.46 794.76,478.21 C795.00,477.49 794.58,477.23 793.70,477.56 C792.72,477.94 791.76,477.09 790.87,475.06 C790.12,473.38 788.98,472.00 788.33,472.00 C787.68,472.00 786.19,470.78 785.02,469.30 L 782.89 466.59 L 785.20 464.82 C786.46,463.84 788.66,463.03 790.08,463.02 C792.66,463.00 793.38,462.44 798.97,456.00 C801.71,452.85 802.12,452.68 803.06,454.25 C804.23,456.21 805.59,456.49 805.46,455.29 C806.30,456.89 808.19,459.44 809.94,461.31 C813.16,464.75 813.33,465.22 811.74,466.12 C810.77,466.66 808.89,468.20 807.56,469.53 C805.43,471.66 799.80,475.54 793.38,479.46 ZM 859.39 416.82 C857.42,419.94 855.04,423.30 854.11,424.27 C852.49,425.95 852.27,425.89 849.45,422.95 C847.83,421.25 844.92,418.91 843.00,417.76 C841.08,416.60 839.35,415.54 839.17,415.41 C838.99,415.28 840.99,411.79 843.63,407.66 C848.10,400.65 848.51,400.28 849.78,402.09 C850.52,403.16 851.56,403.77 852.08,403.45 C854.05,402.23 857.00,404.22 857.80,407.31 C858.36,409.49 859.31,410.60 860.80,410.82 C862.90,411.13 862.86,411.32 859.39,416.82 ZM 789.57 404.35 C793.26,406.87 793.58,406.92 794.79,405.26 C796.50,402.94 799.23,393.45 798.82,391.29 C798.57,390.00 796.95,391.04 792.06,395.63 L 785.63 401.68 ZM 741.52 272.11 C742.02,275.05 741.73,276.52 740.33,278.31 C737.17,282.33 736.00,280.60 736.00,271.92 L 736.00 264.01 L 738.43 266.13 C739.84,267.35 741.14,269.87 741.52,272.11 ZM 652.00 279.63 L 651.90 279.70 L 651.30 273.10 C650.97,269.47 650.26,266.33 649.72,266.12 C647.53,265.28 644.97,261.86 645.67,260.71 C646.64,259.15 646.03,259.54 610.25,283.75 L 590.20 297.32 L 590.06 297.41 L 615.53 280.12 C635.07,266.85 651.27,256.00 651.53,256.00 C651.79,256.00 652.00,261.32 652.00,267.81 ZM 859.10 394.63 C858.22,395.03 856.09,395.39 854.38,395.44 L 851.25 395.53 L 853.83 390.26 C856.36,385.12 858.16,383.83 859.60,386.15 C860.08,386.94 859.86,387.04 858.90,386.46 C857.80,385.80 857.74,385.92 858.62,387.06 C860.59,389.61 860.86,393.83 859.10,394.63 ZM 779.43 318.07 C777.38,320.34 772.00,322.35 772.00,320.84 C772.00,320.26 771.21,320.07 770.25,320.43 C767.82,321.31 773.69,316.59 778.20,314.03 L 781.90 311.93 L 781.48 314.10 C781.25,315.30 780.33,317.08 779.43,318.07 ZM 710.33 251.75 C708.86,251.75 707.06,252.57 706.33,253.57 C704.49,256.08 704.66,255.08 707.15,248.57 C709.20,243.21 709.38,243.03 711.15,244.63 C712.17,245.56 713.00,247.53 713.00,249.03 C713.00,251.31 712.57,251.75 710.33,251.75 ZM 764.16 297.12 C764.90,297.59 765.03,297.98 764.45,297.98 C763.88,297.99 761.02,296.33 758.11,294.29 C753.73,291.23 753.14,290.48 754.66,289.93 C755.67,289.57 756.65,289.66 756.84,290.14 C757.02,290.62 757.59,290.76 758.09,290.44 C758.60,290.13 759.28,290.58 759.61,291.44 C759.94,292.30 760.84,293.00 761.61,293.00 C762.86,293.00 763.18,293.66 762.91,295.64 C762.87,295.99 763.43,296.66 764.16,297.12 ZM 870.33 397.43 C869.39,399.40 868.38,400.96 868.06,400.92 C863.15,400.23 864.50,394.92 869.77,394.18 C872.02,393.87 872.02,393.88 870.33,397.43 ZM 766.26 416.90 C765.46,413.84 764.27,413.77 763.56,416.76 C763.20,418.27 762.66,420.32 762.36,421.32 C761.88,422.93 762.11,422.89 764.30,420.99 C765.90,419.60 766.59,418.15 766.26,416.90 ZM 634.52 220.98 C636.35,218.96 636.34,218.96 632.42,220.58 C627.42,222.66 627.10,223.00 630.18,223.00 C631.56,223.00 633.51,222.09 634.52,220.98 ZM 753.26 453.73 C757.35,451.05 761.35,447.67 764.88,443.86 C763.27,445.98 760.81,448.56 759.07,449.94 C757.66,451.06 755.57,452.40 753.26,453.73 ZM 664.84 390.00 C665.44,389.98 666.03,389.96 666.62,389.93 C670.60,389.81 674.16,389.48 674.49,389.01 L 674.07 390.00 ZM 790.81 459.68 C797.02,455.45 802.55,452.00 803.08,452.00 C802.56,452.04 797.18,455.43 791.08,459.58 C782.43,465.45 772.81,470.73 762.80,475.18 C772.68,470.78 782.17,465.54 790.81,459.68 ZM 763.71 494.43 C770.16,491.81 778.66,487.72 785.15,484.26 C783.03,485.44 780.96,486.54 779.00,487.52 C773.73,490.15 768.69,492.44 763.71,494.43 ZM 634.53 244.04 C631.49,247.75 630.00,250.23 630.00,251.58 C630.00,252.63 629.55,253.79 628.83,254.88 C629.53,253.73 630.00,252.44 630.00,251.52 C630.00,249.92 631.50,247.33 634.00,244.62 C634.18,244.42 634.36,244.23 634.53,244.04 ZM 608.05 199.73 C604.28,202.26 600.36,205.98 597.60,209.61 C600.49,205.72 604.45,201.90 608.00,199.76 ZM 626.11 257.69 C624.99,258.49 623.77,259.00 622.68,259.00 C621.64,259.00 620.63,258.76 619.69,258.33 C621.71,259.09 624.06,258.97 626.11,257.69 ZM 743.69 501.01 C748.92,499.62 756.03,497.35 761.03,495.48 C755.28,497.68 749.58,499.49 743.69,501.01 ZM 675.89 385.75 L 675.65 386.29 C677.44,381.76 681.27,371.73 685.71,359.92 C680.82,373.00 676.70,383.84 675.89,385.75 ZM 590.12 211.48 C588.94,208.29 588.15,206.11 587.78,204.44 L 589.59 209.90 C589.77,210.44 589.94,210.97 590.12,211.48 ZM 594.91 213.89 L 592.66 218.39 L 592.51 217.99 C592.52,218.00 592.53,218.00 592.53,218.00 C592.68,218.00 593.74,216.16 594.91,213.89 ZM 749.19 420.81 C745.92,416.61 743.00,412.59 743.00,412.02 C743.00,412.42 745.72,416.26 749.19,420.81 ZM 612.98 215.82 C613.67,215.86 614.45,215.86 615.25,215.80 L 619.33 215.50 L 621.21 209.89 L 619.38 215.50 L 615.56 215.82 C614.66,215.89 613.76,215.89 612.98,215.82 ZM 606.32 230.86 L 596.58 234.78 L 596.53 234.74 ZM 757.99 431.00 C757.97,431.00 757.96,431.00 757.95,431.00 C757.80,431.00 757.33,430.57 756.65,429.84 C757.34,430.56 757.81,430.98 757.99,431.00 ZM 740.69 459.55 C740.06,459.71 739.05,460.36 737.66,461.53 C739.06,460.36 740.06,459.70 740.68,459.54 C740.89,459.49 741.09,459.44 741.29,459.38 C741.08,459.45 740.87,459.50 740.69,459.55 ZM 588.44 199.80 C588.60,199.56 588.79,199.32 588.99,199.08 ZM 593.82 194.39 C594.17,194.10 594.54,193.81 594.91,193.51 C594.54,193.81 594.18,194.10 593.82,194.39 Z" fill="rgb(47,117,132)"/>
<path d="M 781.45 335.20 C781.74,334.48 781.57,334.15 781.07,334.46 C780.57,334.77 779.23,333.78 778.09,332.26 C773.86,326.62 771.82,325.09 768.10,324.81 C765.18,324.59 765.13,324.51 766.79,322.61 C767.73,321.53 761.20,325.56 752.27,331.57 L 737.76 341.34 L 751.78 331.81 C759.33,326.68 768.17,320.71 772.93,317.51 C770.40,319.40 768.76,320.97 770.25,320.43 C771.21,320.07 772.00,320.26 772.00,320.84 C772.00,322.35 777.38,320.34 779.43,318.07 C780.33,317.08 781.25,315.30 781.48,314.10 L 781.90 311.93 L 778.20 314.03 C777.93,314.18 777.66,314.34 777.38,314.51 C780.05,312.66 781.95,311.21 781.95,311.00 C781.94,310.51 774.77,305.57 748.75,288.12 L 736.00 279.57 L 736.00 271.92 C736.00,280.60 737.17,282.33 740.33,278.31 C741.73,276.52 742.02,275.05 741.52,272.11 C741.14,269.87 739.84,267.35 738.43,266.13 L 736.04 264.05 C736.14,259.39 736.42,256.03 736.75,256.05 C737.16,256.08 753.25,266.78 772.50,279.84 L 807.50 303.58 L 808.09 317.92 L 803.29 321.41 C800.66,323.33 797.38,325.49 796.00,326.20 C794.62,326.91 793.28,327.75 793.00,328.07 C792.14,329.05 778.63,338.19 765.05,347.16 C773.75,341.22 781.15,335.93 781.45,335.20 ZM 677.00 243.52 L 686.50 255.21 L 686.77 225.41 C686.99,200.66 686.77,194.82 685.48,190.94 C683.84,186.00 677.71,178.00 675.56,178.00 C674.91,178.00 672.20,183.30 669.30,190.16 L 673.77 179.32 L 670.56 178.16 C668.80,177.52 666.88,177.00 666.29,177.00 C665.71,177.00 662.88,182.51 660.01,189.25 C658.95,191.74 657.92,194.11 657.02,196.11 C660.55,188.14 666.00,175.01 666.00,174.17 C666.00,171.66 657.25,171.27 649.75,173.37 C653.50,171.99 657.12,171.00 659.02,171.00 C660.17,171.00 660.84,170.55 660.50,170.00 C660.16,169.45 660.30,169.00 660.80,169.00 C661.31,169.00 661.51,167.88 661.24,166.50 C660.95,164.95 660.09,164.00 658.99,164.00 C657.21,164.00 655.59,161.48 656.46,160.07 C656.58,159.88 656.07,159.85 655.15,159.94 L 656.15 159.77 L 663.72 150.13 C667.89,144.84 673.10,138.32 675.29,135.65 L 679.28 130.81 L 677.64 127.37 C675.75,123.42 675.47,114.89 677.12,111.68 C678.81,108.41 682.16,104.99 685.25,103.38 C689.20,101.33 688.64,102.42 684.50,104.87 C680.32,107.33 679.90,110.48 683.34,113.47 C688.60,118.03 688.65,123.23 683.42,122.23 C681.79,121.92 680.45,122.26 679.91,123.11 C678.27,125.71 678.55,126.34 684.69,133.73 C686.42,135.82 686.62,136.59 685.61,137.43 C684.03,138.75 668.00,159.72 668.00,160.46 C668.00,160.76 668.83,161.00 669.84,161.00 C674.04,161.00 684.04,167.23 689.48,173.24 C692.51,176.59 695.00,178.84 695.00,178.22 C695.00,176.87 704.70,167.00 706.02,167.00 C706.52,167.00 706.70,167.62 706.41,168.37 C705.74,170.11 708.55,172.95 712.19,174.22 C713.74,174.75 714.98,175.49 714.96,175.85 C714.94,176.21 713.20,177.69 711.09,179.15 C708.56,180.90 706.19,183.93 704.13,188.06 L 701.00 194.32 L 701.00 232.10 L 699.14 237.14 L 697.09 235.09 C695.87,233.87 695.00,231.71 695.00,229.89 C695.00,226.87 690.08,219.38 689.93,222.17 C689.89,222.90 689.47,222.60 689.00,221.50 C688.46,220.24 688.09,224.46 688.00,233.00 C687.92,240.43 687.55,248.46 687.18,250.86 L 686.50 255.22 L 677.00 243.52 C675.92,242.19 674.94,240.99 674.04,239.89 C670.98,236.13 668.94,233.62 667.61,231.81 C669.32,234.15 672.25,237.66 677.00,243.52 ZM 829.60 367.53 C829.65,367.16 829.56,366.95 829.31,366.93 C823.25,366.37 821.00,364.75 821.00,360.94 C821.00,359.39 820.54,357.84 819.98,357.49 C819.42,357.14 819.29,356.33 819.68,355.68 C820.08,355.03 818.75,355.75 816.73,357.28 C815.35,358.32 814.46,358.97 813.61,359.30 C814.47,358.92 815.36,358.15 816.83,356.87 C818.85,355.11 820.81,352.96 821.18,352.09 C822.22,349.66 821.97,343.01 820.66,338.00 C819.54,333.74 819.64,333.23 822.47,328.62 C824.97,324.55 825.57,322.30 826.07,315.12 C826.41,310.38 826.75,307.29 826.84,308.25 C826.93,309.21 827.56,310.05 828.25,310.11 C831.24,310.36 835.59,309.74 836.59,308.91 C838.42,307.41 839.00,309.04 839.00,315.69 C839.00,319.75 838.22,324.12 836.86,327.77 C834.53,333.99 833.28,342.00 834.65,342.00 C835.12,341.99 841.12,337.50 848.00,332.00 C859.42,322.87 860.58,322.18 861.40,324.00 C862.32,326.04 863.57,326.44 868.00,326.14 L 870.50 325.97 L 868.00 327.90 C866.62,328.96 858.34,335.61 849.59,342.66 C834.07,355.18 833.64,355.64 832.01,361.05 C831.33,363.31 830.53,365.47 829.60,367.53 ZM 868.93 399.97 C866.74,404.25 864.38,408.49 861.90,412.61 C862.60,411.16 862.12,411.01 860.80,410.82 C859.31,410.60 858.36,409.49 857.80,407.31 C857.00,404.22 854.05,402.23 852.08,403.45 C851.56,403.77 850.52,403.16 849.78,402.09 C848.58,400.39 848.15,400.62 844.38,406.49 C854.38,390.56 862.41,372.32 867.69,353.50 C869.32,347.70 870.64,344.45 870.82,345.77 C871.21,348.50 875.09,351.29 877.30,350.44 C878.27,350.07 879.36,350.60 880.12,351.82 C881.27,353.66 881.54,353.69 883.71,352.27 C885.00,351.42 886.28,350.95 886.54,351.21 C887.22,351.89 882.60,367.49 878.34,378.89 C876.39,384.11 874.05,389.53 871.43,394.97 C871.78,393.91 871.28,393.97 869.77,394.18 C864.50,394.92 863.15,400.23 868.06,400.92 C868.22,400.94 868.54,400.58 868.93,399.97 ZM 699.63 322.49 C703.53,312.01 707.33,301.81 710.05,294.50 C718.73,271.22 719.55,268.45 717.91,268.00 C716.91,267.73 714.68,265.36 712.95,262.75 C711.22,260.14 709.44,258.23 708.99,258.51 C708.53,258.79 707.43,258.29 706.53,257.39 C705.64,256.49 704.71,255.95 704.48,256.19 C704.32,256.35 702.37,261.33 699.61,268.56 C704.38,255.78 708.83,243.74 710.25,239.75 L 713.35 231.00 L 723.17 231.00 C728.66,231.00 733.00,231.42 733.00,231.94 C733.00,232.46 725.41,253.27 716.13,278.19 C711.05,291.83 705.02,308.01 699.64,322.49 ZM 618.44 145.51 C626.81,141.52 635.24,138.03 641.06,136.32 C646.31,134.77 650.81,133.10 651.06,132.61 C651.30,132.12 650.60,131.22 649.50,130.61 C642.95,126.97 641.81,125.75 642.24,122.85 C642.93,118.09 641.37,117.48 632.29,120.44 C638.96,118.19 645.56,116.33 651.87,114.98 L 652.10 114.93 C660.21,113.19 663.71,112.44 665.36,113.86 C666.63,114.94 666.81,117.31 667.15,121.50 C667.56,126.60 667.43,129.73 666.77,130.14 C666.21,130.49 663.52,131.07 660.80,131.43 C650.00,132.86 633.49,138.54 618.44,145.51 ZM 731.00 214.12 C731.00,218.53 721.59,214.66 717.99,208.76 C715.62,204.86 715.44,199.99 717.53,195.95 C719.17,192.77 719.80,192.28 719.73,194.25 C719.56,198.95 720.06,200.12 722.14,199.81 C723.77,199.57 724.37,200.10 724.65,202.00 C725.03,204.59 728.32,208.00 730.44,208.00 C732.59,208.00 736.29,203.22 735.75,201.15 C735.30,199.44 735.58,199.31 738.07,200.02 C740.09,200.60 741.23,200.42 742.07,199.42 C744.00,197.09 745.00,197.79 745.00,201.50 C745.00,204.30 744.61,205.00 743.06,205.00 C741.99,205.00 740.82,204.51 740.45,203.92 C740.05,203.27 739.03,204.06 737.94,205.86 C736.92,207.53 734.95,209.64 733.55,210.56 C732.15,211.48 731.00,213.08 731.00,214.12 ZM 796.25 281.85 C796.88,282.48 796.97,282.96 796.45,282.92 C790.81,282.45 788.59,274.51 792.77,269.75 C795.18,267.01 805.00,268.08 805.00,271.09 C805.00,271.83 804.16,271.68 802.63,270.68 C801.32,269.82 799.35,269.36 798.25,269.65 C796.02,270.23 793.25,275.00 795.15,275.00 C795.83,275.00 796.03,276.09 795.68,277.85 C795.36,279.44 795.62,281.22 796.25,281.85 ZM 773.63 249.08 C771.36,250.11 768.38,250.95 767.00,250.94 C764.77,250.92 758.00,248.56 758.00,247.80 C758.00,247.63 760.36,247.36 763.25,247.19 C766.14,247.02 770.30,246.47 772.50,245.97 C780.37,244.16 780.94,245.76 773.63,249.08 ZM 859.10 394.63 C860.86,393.83 860.59,389.61 858.62,387.06 C857.74,385.92 857.80,385.80 858.90,386.46 C859.86,387.04 860.08,386.94 859.60,386.15 C858.16,383.83 856.36,385.12 853.83,390.26 L 851.25 395.53 L 854.38 395.44 C856.09,395.39 858.22,395.03 859.10,394.63 ZM 825.90 303.75 C826.00,306.69 825.37,306.62 824.62,303.62 C824.29,302.30 822.47,298.93 820.58,296.12 C817.43,291.44 817.31,291.00 819.17,291.00 C822.21,291.00 827.30,296.86 826.48,299.43 C826.12,300.57 825.86,302.51 825.90,303.75 ZM 755.05 244.34 C756.20,245.80 756.92,247.00 756.65,247.00 C755.68,247.00 751.95,241.65 751.41,239.49 C751.11,238.29 751.00,235.59 751.18,233.48 L 751.50 229.65 L 754.42 232.17 C757.41,234.75 757.41,235.61 754.50,239.59 C753.10,241.51 753.14,241.91 755.05,244.34 ZM 710.33 251.75 C712.57,251.75 713.00,251.31 713.00,249.03 C713.00,247.53 712.17,245.56 711.15,244.63 C709.38,243.03 709.20,243.21 707.15,248.57 C704.66,255.08 704.49,256.08 706.33,253.57 C707.06,252.57 708.86,251.75 710.33,251.75 ZM 764.16 297.12 C763.43,296.66 762.87,295.99 762.91,295.64 C763.18,293.66 762.86,293.00 761.61,293.00 C760.84,293.00 759.94,292.30 759.61,291.44 C759.28,290.58 758.60,290.13 758.09,290.44 C757.59,290.76 757.02,290.62 756.84,290.14 C756.65,289.66 755.67,289.57 754.66,289.93 C753.14,290.48 753.73,291.23 758.11,294.29 C761.02,296.33 763.88,297.99 764.45,297.98 C765.03,297.98 764.90,297.59 764.16,297.12 ZM 833.48 291.97 C834.35,293.64 834.70,294.95 834.28,294.88 C831.21,294.43 830.00,293.60 830.00,291.99 C830.00,288.80 831.84,288.79 833.48,291.97 ZM 633.95 166.39 C629.80,169.19 625.78,172.90 622.86,176.68 C626.28,172.25 629.84,168.90 633.95,166.39 ZM 826.43 373.45 C824.38,376.68 821.97,379.57 819.21,382.09 C821.56,379.95 824.33,376.51 826.43,373.45 ZM 857.51 419.69 C855.96,422.09 854.88,423.60 853.99,424.39 C854.03,424.35 854.07,424.31 854.11,424.27 C854.75,423.59 856.09,421.78 857.51,419.69 ZM 641.51 177.04 C639.78,178.08 638.15,179.23 636.75,180.40 C637.60,179.65 638.51,178.94 639.36,178.35 C639.97,177.93 640.70,177.49 641.51,177.04 ZM 649.13 160.99 C647.12,161.41 644.97,161.91 643.07,162.41 C644.96,161.84 646.98,161.38 649.13,160.99 ZM 579.79 146.75 C586.14,142.19 593.40,137.79 601.14,133.76 C593.34,137.85 585.97,142.31 579.79,146.75 ZM 843.09 408.51 C840.77,412.20 839.06,415.18 839.16,415.40 L 839.16 415.40 C838.97,415.26 840.73,412.18 843.09,408.51 ZM 687.38 269.00 C687.21,269.46 686.94,269.63 686.40,269.33 C686.94,269.63 687.21,269.45 687.37,269.00 C687.57,268.43 688.95,264.69 690.81,259.68 C688.92,264.79 687.56,268.48 687.38,269.00 ZM 666.55 196.83 L 662.80 205.96 L 662.79 205.95 ZM 686.25 358.48 C681.69,370.69 677.64,381.38 676.24,384.87 C677.57,381.55 681.33,371.64 685.71,359.92 Z" fill="rgb(69,142,149)"/>
<path d="M 731.00 214.12 C731.00,213.08 732.15,211.48 733.55,210.56 C734.95,209.64 736.92,207.53 737.94,205.86 C739.03,204.06 740.05,203.27 740.45,203.92 C740.82,204.51 741.99,205.00 743.06,205.00 C743.77,205.00 744.24,204.85 744.54,204.42 C744.16,207.62 744.65,208.29 748.72,212.12 C755.02,218.06 759.13,221.04 760.15,220.41 C760.62,220.12 761.00,214.28 761.00,207.43 C761.00,196.95 760.67,194.29 758.94,190.60 C750.39,172.40 728.62,167.48 714.15,176.78 C714.65,176.33 714.95,176.00 714.96,175.85 C714.98,175.49 713.74,174.75 712.19,174.22 C708.55,172.95 705.74,170.11 706.41,168.37 C706.70,167.62 706.52,167.00 706.02,167.00 C705.97,167.00 705.92,167.01 705.86,167.03 C710.26,164.25 716.99,161.02 718.75,161.01 C719.44,161.00 720.00,160.73 720.00,160.40 C720.00,160.07 716.85,155.81 713.00,150.93 C709.15,146.05 706.00,141.78 706.00,141.44 C706.00,141.10 705.07,140.07 703.93,139.15 C702.36,137.87 699.85,137.47 693.55,137.48 L 685.53 137.50 C685.56,137.47 685.58,137.45 685.61,137.43 C686.62,136.59 686.42,135.82 684.69,133.73 C678.55,126.34 678.27,125.71 679.91,123.11 C680.45,122.26 681.79,121.92 683.42,122.23 C688.65,123.23 688.60,118.03 683.34,113.47 C679.90,110.48 680.32,107.33 684.50,104.87 C687.40,103.16 688.54,102.11 687.61,102.33 C689.85,101.47 692.25,101.00 694.68,101.00 C707.86,101.00 716.58,116.06 710.41,128.14 C709.10,130.70 709.40,131.22 719.16,143.64 C724.71,150.72 729.82,157.10 730.51,157.84 C731.19,158.58 734.92,159.79 738.79,160.53 C750.14,162.69 759.12,168.16 765.19,176.61 C767.00,179.14 769.48,181.32 770.94,181.67 C775.98,182.87 786.47,188.12 791.65,192.02 C794.54,194.21 797.28,196.00 797.73,196.00 C798.18,196.00 801.60,192.93 805.32,189.18 L 812.09 182.36 L 810.89 177.89 C808.86,170.27 811.68,162.51 818.26,157.64 C822.15,154.76 832.44,154.16 837.43,156.53 C848.41,161.74 850.81,176.87 842.10,186.00 C836.21,192.18 829.57,193.25 820.00,189.56 C818.99,189.17 812.40,195.08 799.66,207.84 L 780.83 226.69 L 783.36 237.58 L 799.18 245.84 C807.88,250.39 815.00,253.73 815.00,253.26 C815.00,252.17 807.41,244.93 803.35,242.16 C800.57,240.26 800.11,239.27 799.47,233.75 C799.08,230.31 798.19,225.63 797.50,223.34 L 796.25 219.18 L 801.12 214.38 C804.15,211.40 806.33,209.95 806.90,210.54 C808.38,212.10 811.11,221.13 811.72,226.50 C812.24,231.03 812.98,232.22 819.58,239.17 C827.46,247.46 829.27,250.32 832.48,259.47 C834.69,265.80 835.90,266.91 865.80,289.98 L 872.09 294.85 L 876.66 292.83 C889.53,287.13 904.24,299.26 901.59,313.39 C900.24,320.59 893.43,327.24 886.16,328.47 C882.76,329.05 879.65,328.38 873.00,325.65 C872.02,325.25 864.99,330.28 852.58,340.27 C838.57,351.55 834.92,354.52 833.28,357.61 C834.83,354.63 838.01,352.00 849.59,342.66 C858.34,335.61 866.62,328.96 868.00,327.90 L 870.50 325.97 L 868.00 326.14 C863.57,326.44 862.32,326.04 861.40,324.00 C860.58,322.18 859.42,322.87 848.00,332.00 C843.10,335.92 838.64,339.33 836.31,340.96 C838.95,339.09 844.40,334.88 850.44,330.01 L 865.34 318.02 L 865.24 310.00 C865.23,309.22 865.23,308.52 865.23,307.89 C865.24,306.01 865.25,304.70 864.89,303.50 C863.94,300.32 860.41,297.91 847.56,287.77 C841.48,282.96 836.06,279.17 835.51,279.35 C834.97,279.52 834.20,281.60 833.79,283.97 C833.39,286.34 832.86,288.47 832.62,288.72 C832.38,288.96 833.59,292.16 835.31,295.83 C837.79,301.11 838.41,303.57 838.75,310.42 C838.43,308.28 837.77,307.95 836.59,308.91 C835.59,309.74 831.24,310.36 828.25,310.11 C827.56,310.05 826.93,309.21 826.84,308.25 C826.75,307.29 826.41,310.38 826.07,315.12 C826.03,315.76 825.98,316.37 825.93,316.94 C826.51,309.11 824.38,300.64 819.83,295.46 C815.13,290.10 803.25,282.72 800.46,283.42 C798.92,283.81 797.28,283.53 795.78,282.83 C795.99,282.87 796.22,282.90 796.45,282.92 C796.97,282.96 796.88,282.48 796.25,281.85 C795.62,281.22 795.36,279.44 795.68,277.85 C796.03,276.09 795.83,275.00 795.15,275.00 C793.25,275.00 796.02,270.23 798.25,269.65 C799.35,269.36 801.32,269.82 802.63,270.68 C804.16,271.68 805.00,271.83 805.00,271.09 L 805.00 271.09 C805.08,271.20 805.16,271.32 805.24,271.45 C806.48,273.35 810.42,276.66 814.00,278.81 C821.22,283.14 821.79,282.93 821.93,275.82 C822.07,268.42 821.55,267.97 799.71,256.69 L 779.27 246.14 L 777.54 247.01 C780.25,245.19 778.48,244.59 772.50,245.97 C770.30,246.47 766.14,247.02 763.25,247.19 C760.36,247.36 758.00,247.63 758.00,247.80 C758.00,247.81 758.00,247.83 758.01,247.85 C757.52,247.57 757.06,247.29 756.63,247.00 C756.64,247.00 756.64,247.00 756.65,247.00 C756.92,247.00 756.20,245.80 755.05,244.34 C753.14,241.91 753.10,241.51 754.50,239.59 C757.41,235.61 757.41,234.75 754.42,232.17 L 751.50 229.65 L 751.27 232.44 L 751.15 227.63 L 745.01 221.36 L 738.88 215.09 L 732.69 215.61 C731.71,215.69 730.85,215.75 730.09,215.78 C730.66,215.49 731.00,214.95 731.00,214.12 ZM 883.07 283.00 C879.80,283.00 875.98,283.44 874.58,283.97 C872.28,284.85 871.97,284.67 871.47,282.22 C865.27,251.83 856.59,229.90 842.18,208.24 C839.16,203.70 836.87,199.84 837.09,199.67 C837.32,199.50 839.53,198.20 842.00,196.78 C844.48,195.37 847.36,193.26 848.41,192.10 C849.45,190.95 850.70,190.00 851.17,190.00 C852.77,190.00 866.17,211.40 871.53,222.50 C878.15,236.23 884.49,254.80 887.04,267.98 L 887.27 269.14 C888.94,277.77 889.58,281.03 888.28,282.26 C887.50,283.01 886.00,283.00 883.60,283.00 C883.42,283.00 883.25,283.00 883.07,283.00 ZM 803.56 161.83 C803.18,163.02 802.56,163.99 802.18,163.98 C801.81,163.97 797.45,161.26 792.50,157.95 C774.74,146.07 750.98,136.07 730.66,131.93 C725.09,130.80 720.48,129.78 720.41,129.68 C720.33,129.58 720.49,125.60 720.76,120.83 L 721.24 112.17 L 724.87 112.68 C753.35,116.74 782.91,128.65 806.80,145.68 L 813.11 150.18 L 808.68 154.91 C806.24,157.52 803.93,160.63 803.56,161.83 ZM 886.58 351.98 C886.63,351.55 886.62,351.29 886.54,351.21 C886.28,350.95 885.00,351.42 883.71,352.27 C881.54,353.69 881.27,353.66 880.12,351.82 C879.36,350.60 878.27,350.07 877.30,350.44 C875.09,351.29 871.21,348.50 870.82,345.77 C870.64,344.45 869.32,347.70 867.69,353.50 C865.96,359.69 863.92,365.81 861.62,371.81 C864.26,364.92 866.45,358.04 868.06,351.50 C869.28,346.55 870.65,341.73 871.12,340.79 C871.59,339.85 871.68,338.33 871.33,337.42 C870.83,336.10 871.12,335.90 872.79,336.43 C873.95,336.80 878.07,337.16 881.95,337.23 C887.29,337.33 889.00,337.70 889.00,338.77 C889.00,339.55 888.10,344.58 887.01,349.96 C886.87,350.62 886.73,351.30 886.58,351.98 ZM 771.00 207.89 C771.00,216.78 771.33,220.00 772.22,220.00 C773.85,220.00 787.00,206.91 787.00,205.29 C787.00,203.71 777.46,197.35 773.75,196.45 L 771.00 195.78 ZM 716.11 200.98 C716.47,194.77 721.02,188.85 728.88,187.37 C735.57,186.10 742.39,191.45 744.26,198.20 C743.77,197.84 743.04,198.25 742.07,199.42 C741.23,200.42 740.09,200.60 738.07,200.02 C735.58,199.31 735.30,199.44 735.75,201.15 C736.29,203.22 732.59,208.00 730.44,208.00 C729.73,208.00 728.90,207.63 728.10,207.03 C730.22,208.38 731.15,208.18 733.17,206.35 C735.45,204.28 735.53,200.24 733.35,197.83 C731.13,195.38 729.38,195.52 726.52,198.39 C725.33,199.57 724.72,200.82 724.66,202.04 L 724.65 202.00 C724.37,200.10 723.77,199.57 722.14,199.81 C720.06,200.12 719.56,198.95 719.73,194.25 C719.80,192.28 719.17,192.77 717.53,195.95 C716.71,197.54 716.24,199.25 716.11,200.98 ZM 825.90 303.75 C825.86,302.51 826.12,300.57 826.48,299.43 C827.30,296.86 822.21,291.00 819.17,291.00 C817.31,291.00 817.43,291.44 820.58,296.12 C822.47,298.93 824.29,302.30 824.62,303.62 C825.37,306.62 826.00,306.69 825.90,303.75 ZM 833.48 291.97 C831.84,288.79 830.00,288.80 830.00,291.99 C830.00,293.60 831.21,294.43 834.28,294.88 C834.70,294.95 834.35,293.64 833.48,291.97 ZM 589.01 386.69 L 588.50 380.10 L 584.73 377.47 L 589.00 380.21 L 589.01 386.35 C589.01,386.46 589.01,386.57 589.01,386.69 ZM 794.35 268.75 C795.50,268.23 796.90,268.00 798.65,268.00 C801.32,268.00 802.50,268.19 803.64,269.34 C801.42,268.10 796.99,267.76 794.35,268.75 ZM 590.41 398.10 C590.30,397.69 590.17,397.01 590.03,396.16 C590.06,396.27 590.09,396.38 590.12,396.48 L 591.22 400.45 L 588.61 402.72 C590.70,400.74 590.90,399.83 590.41,398.10 ZM 790.90 277.84 C790.33,276.49 790.16,275.05 790.57,273.70 C791.06,272.08 791.71,270.85 792.60,269.95 C790.68,272.28 790.23,275.30 790.90,277.84 ZM 704.49 167.93 C702.51,169.52 699.19,172.83 697.05,175.30 L 697.16 175.14 C698.66,173.14 701.49,170.24 703.45,168.70 C703.76,168.45 704.11,168.20 704.49,167.93 ZM 681.74 142.05 L 676.61 148.74 C671.92,154.86 668.06,160.12 668.00,160.48 C668.00,160.47 668.00,160.47 668.00,160.46 C668.00,159.92 676.51,148.64 681.74,142.05 ZM 755.59 246.23 C753.96,244.91 752.90,243.41 752.25,241.44 C753.16,243.14 754.57,245.16 755.59,246.23 ZM 726.31 215.49 C725.26,215.22 724.33,214.77 723.24,214.08 C720.80,212.53 719.01,210.60 717.83,208.48 C717.88,208.57 717.94,208.67 717.99,208.76 C719.89,211.87 723.41,214.42 726.31,215.49 ZM 570.15 361.05 C570.61,362.05 571.09,363.01 571.60,363.93 C570.64,362.22 569.80,360.41 569.08,358.49 C567.85,355.20 567.12,350.98 567.02,347.78 C567.24,351.73 568.42,357.30 570.15,361.05 ZM 825.83 318.08 C825.34,322.99 824.60,325.13 822.52,328.54 C824.32,325.57 825.41,321.93 825.83,318.08 ZM 710.55 179.54 C708.02,181.84 705.82,184.67 704.13,188.06 C706.05,184.22 708.23,181.33 710.55,179.54 ZM 682.97 104.85 C680.97,106.38 679.05,108.48 677.74,110.60 C679.03,108.35 680.84,106.40 682.97,104.85 ZM 574.87 387.71 C575.62,388.79 576.00,389.65 576.00,390.29 C576.00,390.38 576.00,390.48 576.01,390.60 C575.77,389.52 575.43,388.63 574.87,387.71 ZM 834.63 342.00 C834.09,341.97 833.97,340.65 834.18,338.68 C834.06,340.51 834.24,341.91 834.63,342.00 ZM 568.13 343.00 C568.15,343.00 568.17,343.00 568.19,343.00 C569.03,343.00 572.96,345.10 576.68,347.33 C573.01,345.15 569.12,343.09 568.13,343.00 ZM 688.81 172.53 C686.10,169.70 682.46,166.88 678.98,164.73 C682.53,166.91 686.22,169.76 688.81,172.53 ZM 765.68 250.78 C764.55,250.63 763.39,250.31 762.09,249.79 C763.33,250.21 764.64,250.58 765.68,250.78 ZM 676.07 119.61 C676.20,122.52 676.73,125.47 677.64,127.37 C676.69,125.39 676.17,122.50 676.07,119.61 ZM 881.16 370.92 C882.10,368.11 883.00,365.30 883.78,362.72 C882.99,365.41 882.11,368.15 881.16,370.92 ZM 577.40 397.88 C578.09,400.66 578.94,403.60 579.71,405.74 C578.96,403.70 578.09,400.72 577.40,397.88 ZM 864.51 408.14 C863.63,409.70 862.74,411.24 861.84,412.73 C861.86,412.69 861.88,412.65 861.90,412.61 C862.79,411.13 863.66,409.64 864.51,408.14 ZM 695.08 177.94 C695.03,178.06 695.00,178.15 695.00,178.22 C695.00,178.32 694.93,178.34 694.81,178.30 ZM 569.32 381.68 C566.95,379.44 565.05,377.34 563.38,375.05 C565.08,377.37 567.02,379.50 569.48,381.83 C569.56,381.91 569.65,381.99 569.73,382.07 C569.60,381.94 569.46,381.81 569.32,381.68 ZM 771.06 250.07 C770.33,250.33 769.65,250.53 768.98,250.66 C769.63,250.51 770.34,250.31 771.06,250.07 ZM 845.31 404.98 C845.00,405.48 844.69,405.99 844.38,406.49 C844.16,406.83 843.93,407.18 843.69,407.56 C843.94,407.16 844.20,406.76 844.46,406.35 C844.74,405.90 845.03,405.44 845.31,404.98 ZM 839.17 415.42 C839.17,415.42 839.17,415.42 839.17,415.41 C839.36,415.55 841.08,416.60 843.00,417.76 C841.08,416.60 839.35,415.55 839.17,415.42 ZM 582.73 260.92 L 582.79 260.92 C583.15,260.97 583.47,261.00 583.71,261.00 C583.46,261.00 583.13,260.97 582.73,260.92 Z" fill="rgb(72,175,168)"/>
<path d="M 699.22 517.96 C707.70,515.60 713.58,507.14 712.69,498.58 C712.40,495.78 711.89,492.60 711.54,491.50 C711.05,489.92 713.76,486.42 724.39,474.87 C733.42,465.08 738.80,460.02 740.69,459.55 C744.77,458.54 754.91,453.24 759.07,449.94 C761.04,448.38 763.92,445.28 765.46,443.05 C767.56,440.02 769.30,438.74 772.38,437.95 C780.91,435.77 794.00,429.20 794.00,427.10 C794.00,426.72 791.78,424.72 789.07,422.65 L 784.15 418.90 L 778.53 422.07 C775.44,423.81 772.61,424.95 772.26,424.59 C771.39,423.72 773.72,415.10 775.62,412.20 C776.44,410.93 777.76,409.64 778.56,409.34 C779.93,408.81 786.56,413.52 804.04,427.43 L 811.50 433.36 L 811.50 441.01 C811.50,447.84 811.80,449.04 814.31,452.33 C824.80,466.10 846.12,460.18 847.77,443.04 C848.69,433.51 841.61,424.56 832.16,423.29 C829.73,422.97 826.03,423.44 822.68,424.49 L 817.20 426.21 L 811.07 421.36 C807.20,418.29 805.11,415.95 805.41,415.00 C805.66,414.17 807.05,410.37 808.49,406.55 C809.93,402.73 811.38,396.76 811.70,393.30 C812.02,389.83 812.64,387.00 813.06,387.00 C813.49,387.00 816.26,384.79 819.21,382.09 C825.12,376.69 829.45,369.57 832.00,361.05 C833.65,355.57 833.90,355.31 852.58,340.27 C864.99,330.28 872.02,325.25 873.00,325.65 C879.65,328.38 882.76,329.05 886.16,328.47 C893.43,327.24 900.24,320.59 901.59,313.39 C904.24,299.26 889.53,287.13 876.66,292.83 L 872.09 294.85 L 865.80 289.98 C835.90,266.91 834.69,265.80 832.48,259.47 C829.27,250.32 827.46,247.46 819.58,239.17 C812.98,232.22 812.24,231.03 811.72,226.50 C811.11,221.13 808.38,212.10 806.90,210.54 C806.33,209.95 804.15,211.40 801.12,214.38 L 796.25 219.18 L 797.50 223.34 C798.19,225.63 799.08,230.31 799.47,233.75 C800.11,239.27 800.57,240.26 803.35,242.16 C807.41,244.93 815.00,252.17 815.00,253.26 C815.00,253.73 807.88,250.39 799.18,245.84 L 783.36 237.58 L 782.09 232.14 L 780.83 226.69 L 799.66 207.84 C812.40,195.08 818.99,189.17 820.00,189.56 C829.57,193.25 836.21,192.18 842.10,186.00 C850.81,176.87 848.41,161.74 837.43,156.53 C832.44,154.16 822.15,154.76 818.26,157.64 C811.68,162.51 808.86,170.27 810.89,177.89 L 812.09 182.36 L 805.32 189.18 C801.60,192.93 798.18,196.00 797.73,196.00 C797.28,196.00 794.54,194.21 791.65,192.02 C786.47,188.12 775.98,182.87 770.94,181.67 C769.48,181.32 767.00,179.14 765.19,176.61 C759.12,168.16 750.14,162.69 738.79,160.53 C734.92,159.79 731.19,158.58 730.51,157.84 C729.82,157.10 724.71,150.72 719.16,143.64 C709.40,131.22 709.10,130.70 710.41,128.14 C716.58,116.06 707.86,101.00 694.68,101.00 C687.53,101.00 680.60,105.09 677.41,111.20 C675.51,114.84 675.63,123.15 677.64,127.37 L 679.28 130.81 L 675.29 135.65 C673.10,138.32 667.89,144.84 663.72,150.13 L 656.15 159.77 L 649.40 160.94 C637.58,163.00 629.90,167.55 622.86,176.68 C619.69,180.78 617.83,182.23 614.63,183.09 C607.83,184.90 597.06,191.07 591.84,196.16 C586.37,201.49 586.38,201.34 590.47,212.45 L 592.66 218.39 L 595.04 213.64 C597.79,208.13 604.93,201.10 610.82,198.09 C613.07,196.94 615.12,196.00 615.35,196.00 C615.59,196.00 614.46,200.12 612.85,205.15 C611.06,210.70 610.26,214.66 610.82,215.22 C611.32,215.72 613.46,215.99 615.56,215.82 L 619.38 215.50 L 622.40 206.25 C624.06,201.16 625.89,197.03 626.46,197.06 C627.03,197.09 629.89,200.00 632.82,203.51 L 638.14 209.91 L 636.82 214.60 L 635.49 219.30 L 616.01 227.02 L 596.53 234.74 L 593.36 232.33 C590.91,230.45 589.54,227.95 587.28,221.20 C585.67,216.42 582.19,206.26 579.53,198.63 L 574.69 184.77 L 576.35 180.13 C578.47,174.21 578.41,170.49 576.11,165.50 C572.80,158.33 567.54,155.00 559.50,155.00 C553.99,155.00 550.28,156.39 546.66,159.81 C542.48,163.77 541.00,167.27 541.00,173.22 C541.00,179.94 543.41,184.58 548.94,188.50 C552.68,191.15 554.01,191.50 560.21,191.50 L 567.23 191.50 L 572.14 205.50 C576.50,217.94 576.98,220.11 576.43,225.00 C575.86,230.02 575.23,231.15 569.10,238.00 C560.99,247.07 558.49,251.05 555.66,259.41 C553.50,265.79 553.48,265.81 538.50,277.56 C530.25,284.03 521.86,290.64 519.86,292.24 C516.33,295.07 516.12,295.11 513.16,293.58 C509.20,291.54 500.74,291.56 496.39,293.62 C486.74,298.20 483.31,311.13 489.33,320.23 C490.55,322.07 493.91,324.74 497.00,326.32 C503.04,329.41 507.30,329.49 513.06,326.62 C514.81,325.75 516.75,325.35 517.37,325.73 C517.99,326.11 526.71,332.89 536.75,340.79 C550.98,352.00 555.00,355.67 555.00,357.46 C555.00,358.73 556.79,363.34 558.98,367.71 C561.86,373.47 564.70,377.31 569.32,381.68 C575.01,387.06 575.76,388.23 576.35,392.60 C577.03,397.60 579.74,406.94 580.87,408.20 C581.22,408.58 583.69,406.99 586.36,404.67 L 591.22 400.45 L 590.12 396.48 C589.51,394.29 589.01,389.73 589.01,386.35 L 589.00 380.21 L 584.03 377.02 C577.63,372.91 573.34,367.98 570.15,361.05 C567.20,354.66 565.86,343.00 568.08,343.00 C569.79,343.00 583.38,351.04 583.90,352.36 C584.12,352.93 585.33,354.42 586.60,355.69 C591.66,360.75 600.91,356.47 599.61,349.68 C598.74,345.14 594.78,342.00 589.94,342.00 C585.36,342.00 569.28,333.44 565.97,329.24 C560.69,322.52 560.69,308.11 565.98,298.19 L 569.29 291.99 L 567.59 284.13 C565.29,273.47 566.17,266.88 570.53,262.12 C573.68,258.69 573.84,258.63 577.74,259.80 C579.94,260.46 582.62,261.00 583.71,261.00 C585.72,261.00 586.01,261.52 591.07,273.75 C592.27,276.64 593.75,279.00 594.37,279.00 C594.99,278.99 596.77,277.98 598.32,276.74 L 601.13 274.48 L 598.07 267.65 C594.48,259.66 594.33,257.82 596.92,253.62 C597.97,251.90 599.13,248.88 599.50,246.91 C600.15,243.38 600.40,243.21 613.33,237.75 C620.57,234.70 627.85,231.75 629.50,231.20 C631.15,230.65 633.40,229.84 634.50,229.40 C635.60,228.96 633.58,231.83 630.00,235.79 C626.42,239.74 622.69,242.98 621.70,242.99 C618.62,243.01 615.00,247.53 615.00,251.38 C615.00,255.37 618.66,259.00 622.68,259.00 C625.83,259.00 630.00,254.77 630.00,251.58 C630.00,249.89 632.32,246.44 637.09,241.04 C643.45,233.83 644.45,233.08 646.84,233.69 C648.30,234.06 651.54,234.37 654.03,234.37 L 658.57 234.38 L 669.31 248.44 C684.36,268.13 686.73,270.82 687.38,269.00 C687.67,268.17 690.86,259.53 694.46,249.80 L 701.00 232.10 L 701.00 213.21 L 701.00 194.32 L 704.11 188.09 C715.27,165.76 747.97,167.26 758.94,190.60 C760.67,194.29 761.00,196.95 761.00,207.43 C761.00,214.28 760.62,220.12 760.15,220.41 C759.13,221.04 755.02,218.06 748.72,212.12 C744.31,207.96 744.10,207.53 744.65,203.55 C745.87,194.60 737.28,185.78 728.88,187.37 C714.92,190.01 711.41,206.61 723.24,214.08 C725.93,215.77 727.58,216.04 732.69,215.61 L 738.88 215.09 L 745.01 221.36 L 751.15 227.63 L 751.32 234.74 C751.53,242.88 753.42,245.84 760.50,249.11 C765.85,251.58 768.74,251.47 774.47,248.57 L 779.27 246.14 L 799.71 256.69 C821.55,267.97 822.07,268.42 821.93,275.82 C821.79,282.93 821.22,283.14 814.00,278.81 C810.42,276.66 806.48,273.35 805.24,271.45 C803.24,268.39 802.49,268.00 798.65,268.00 C794.08,268.00 791.82,269.59 790.57,273.70 C789.07,278.61 795.29,284.72 800.46,283.42 C803.25,282.72 815.13,290.10 819.83,295.46 C826.87,303.47 828.14,319.38 822.48,328.61 C819.64,333.23 819.54,333.74 820.66,338.00 C821.97,343.01 822.22,349.66 821.18,352.09 C820.81,352.96 818.85,355.11 816.83,356.87 C813.15,360.07 813.15,360.07 807.95,358.76 L 802.75 357.44 L 799.78 349.22 C798.15,344.70 796.49,341.00 796.09,341.00 C795.70,341.00 794.06,342.37 792.46,344.04 L 789.55 347.08 L 791.77 353.29 C794.43,360.69 794.49,361.80 792.41,364.10 C791.53,365.07 790.07,367.34 789.16,369.15 C787.80,371.84 786.17,372.94 780.16,375.22 C776.12,376.75 772.41,377.75 771.91,377.44 C771.41,377.13 771.26,375.22 771.59,373.19 C772.76,365.82 765.39,361.20 760.19,366.04 C757.16,368.86 757.31,373.67 760.53,377.03 C763.38,380.00 763.04,382.54 759.66,383.60 C758.47,383.98 754.23,385.83 750.24,387.73 L 742.98 391.17 L 738.67 389.08 C736.31,387.94 732.80,387.00 730.88,387.00 C728.95,387.00 726.67,386.44 725.81,385.75 C724.94,385.06 719.17,376.89 712.99,367.59 C704.31,354.52 701.56,351.04 700.87,352.26 C700.39,353.13 697.33,361.19 694.07,370.17 L 688.15 386.50 L 687.82 405.50 C687.50,423.97 687.42,424.66 684.69,430.21 C673.40,453.22 641.43,452.88 629.99,429.62 C627.04,423.65 626.94,422.99 627.22,411.97 C627.57,397.79 628.22,397.39 637.49,405.68 C643.97,411.48 644.00,411.52 644.00,416.88 C644.00,423.57 646.38,427.72 652.04,430.90 C661.31,436.11 671.99,429.20 671.99,418.00 C671.99,408.75 665.33,403.23 655.52,404.36 C650.52,404.93 650.48,404.91 643.86,398.98 L 637.23 393.03 L 637.68 386.76 C638.04,381.65 637.75,379.90 636.07,377.24 C630.04,367.67 615.57,367.55 609.17,377.00 C607.13,380.02 606.87,381.36 607.29,386.77 L 607.77 393.05 L 588.86 409.62 L 569.95 426.20 L 565.95 424.60 C556.38,420.77 546.31,424.91 541.89,434.50 C539.55,439.56 539.55,443.44 541.90,448.50 C545.42,456.11 551.42,460.00 559.61,460.00 C565.09,460.00 568.72,458.22 572.84,453.53 C577.09,448.69 578.53,442.25 576.77,435.93 C576.11,433.58 577.55,432.05 594.60,416.93 C606.47,406.42 613.94,400.50 615.33,400.50 C617.42,400.50 617.51,400.93 617.78,412.75 C617.99,421.75 617.74,425.00 616.86,425.00 C616.21,425.00 612.77,423.41 609.23,421.46 L 602.80 417.93 L 598.40 421.53 C595.98,423.51 594.00,425.56 594.00,426.09 C594.00,427.85 606.30,435.01 612.76,437.01 C618.14,438.67 620.16,440.00 625.34,445.28 C636.15,456.32 650.61,461.88 663.34,459.90 C672.31,458.51 681.49,453.69 688.23,446.83 C691.37,443.62 694.23,441.00 694.58,441.00 C694.93,441.00 696.10,442.12 697.18,443.50 C698.26,444.88 699.51,446.00 699.95,446.00 C700.39,446.00 701.77,443.30 703.00,440.00 L 705.24 434.00 L 703.12 429.06 C701.13,424.42 701.00,422.45 701.00,396.06 C701.00,380.63 701.34,368.01 701.75,368.02 C702.16,368.03 705.96,373.29 710.18,379.69 L 717.87 391.34 L 715.93 395.13 C713.37,400.16 713.50,403.66 716.47,409.54 L 718.94 414.41 L 714.54 425.96 C712.12,432.31 707.69,443.80 704.69,451.50 C701.69,459.20 697.94,469.05 696.36,473.39 C693.62,480.95 693.33,481.34 689.48,482.47 C680.39,485.15 675.71,490.89 675.71,499.37 C675.71,507.65 680.75,514.72 688.64,517.54 C693.37,519.22 694.50,519.27 699.22,517.96 ZM 666.58 500.49 C666.62,497.74 667.00,493.88 667.41,491.89 L 668.17 488.29 L 658.33 486.02 C633.16,480.21 612.45,470.39 586.99,452.17 C585.33,450.99 584.96,451.18 583.51,453.98 C582.62,455.71 580.29,458.89 578.33,461.06 L 574.77 464.99 L 577.14 467.02 C587.47,475.87 613.11,490.29 628.58,495.95 C638.56,499.60 662.69,506.06 665.00,505.71 C666.09,505.54 666.52,504.11 666.58,500.49 ZM 727.88 505.02 C729.87,504.49 736.22,502.88 742.00,501.44 C754.51,498.34 766.08,493.98 779.00,487.52 C789.60,482.21 803.86,473.23 807.56,469.53 C808.89,468.20 810.77,466.66 811.74,466.12 C813.33,465.22 813.16,464.75 809.94,461.31 C807.97,459.22 805.85,456.26 805.21,454.75 C804.57,453.24 803.61,452.00 803.08,452.00 C802.55,452.00 797.02,455.45 790.81,459.68 C772.32,472.23 749.93,481.88 728.20,486.67 C720.73,488.32 719.96,488.70 720.51,490.50 C720.85,491.60 721.39,495.54 721.70,499.25 C722.01,502.96 722.72,506.00 723.27,506.00 C723.82,506.00 725.90,505.56 727.88,505.02 ZM 538.18 423.50 C539.26,422.12 542.14,419.83 544.57,418.40 C547.01,416.98 549.00,415.59 549.00,415.33 C549.00,415.06 545.93,409.78 542.18,403.59 C531.02,385.16 521.35,360.51 517.86,341.52 C516.87,336.17 516.34,335.05 515.07,335.58 C511.33,337.14 505.25,338.11 502.25,337.64 C500.35,337.34 499.00,337.56 499.00,338.16 C499.00,338.72 499.93,343.73 501.06,349.28 C505.60,371.56 516.41,397.69 528.99,416.75 C532.34,421.84 535.34,426.00 535.65,426.00 C535.96,426.00 537.10,424.87 538.18,423.50 ZM 860.70 414.60 C872.52,395.53 882.94,369.92 887.01,349.96 C888.10,344.58 889.00,339.55 889.00,338.77 C889.00,337.70 887.29,337.33 881.95,337.23 C878.07,337.16 873.95,336.80 872.79,336.43 C871.12,335.90 870.83,336.10 871.33,337.42 C871.68,338.33 871.59,339.85 871.12,340.79 C870.65,341.73 869.28,346.55 868.06,351.50 C863.63,369.50 854.77,390.09 844.46,406.35 C841.37,411.21 839.00,415.29 839.17,415.42 C839.35,415.55 841.08,416.60 843.00,417.76 C844.92,418.91 847.81,421.23 849.42,422.91 C853.06,426.71 853.32,426.52 860.70,414.60 ZM 675.88 385.75 C676.88,383.41 682.55,368.45 688.48,352.50 C694.40,336.55 706.85,303.11 716.13,278.19 C725.41,253.27 733.00,232.46 733.00,231.94 C733.00,231.42 728.66,231.00 723.17,231.00 L 713.35 231.00 L 710.25 239.75 C708.54,244.56 702.42,261.10 696.64,276.50 C671.42,343.74 663.75,364.59 663.72,366.00 C663.71,366.83 663.37,367.73 662.98,368.00 C662.30,368.47 655.00,388.01 655.00,389.37 C655.00,389.71 659.29,390.00 664.54,390.00 L 674.07 390.00 L 675.88 385.75 ZM 652.00 355.08 C652.00,343.97 651.54,341.00 649.82,341.00 C649.29,341.00 648.27,340.41 647.55,339.70 C646.46,338.60 611.50,314.71 607.03,312.00 C606.22,311.51 605.77,310.93 606.03,310.72 C606.29,310.50 616.74,303.42 629.25,294.98 L 652.00 279.63 L 652.00 267.81 C652.00,261.32 651.79,256.00 651.53,256.00 C651.27,256.00 635.07,266.85 615.53,280.12 L 580.00 304.24 L 580.00 311.06 L 580.00 317.87 L 615.25 341.87 C634.64,355.07 650.84,365.90 651.25,365.93 C651.66,365.97 652.00,361.09 652.00,355.08 ZM 793.00 328.07 C793.28,327.75 794.62,326.91 796.00,326.20 C797.38,325.49 800.66,323.33 803.29,321.41 L 808.09 317.92 L 807.79 310.75 L 807.50 303.58 L 772.50 279.84 C753.25,266.78 737.16,256.08 736.75,256.05 C736.34,256.02 736.00,261.30 736.00,267.78 L 736.00 279.57 L 748.75 288.12 C774.77,305.57 781.94,310.51 781.95,311.00 C781.95,311.27 778.70,313.66 774.73,316.31 C770.75,318.96 760.42,325.93 751.78,331.81 L 736.06 342.50 L 736.03 353.58 C736.01,359.68 736.28,364.95 736.63,365.30 C737.14,365.81 791.25,330.07 793.00,328.07 ZM 518.03 274.86 C522.43,253.36 532.66,228.64 545.06,209.49 C548.47,204.23 551.09,199.80 550.88,199.64 C548.37,197.78 536.83,191.00 536.16,191.00 C535.10,191.00 530.32,198.02 528.99,201.54 C528.47,202.89 527.62,204.00 527.09,204.00 C525.29,204.00 511.40,233.46 507.12,246.36 C503.23,258.07 499.00,276.14 499.00,281.04 C499.00,282.77 499.73,283.01 505.25,283.07 C508.69,283.11 512.40,283.50 513.50,283.94 C514.60,284.39 515.64,284.63 515.81,284.48 C515.98,284.34 516.98,280.01 518.03,274.86 ZM 883.07 283.00 C890.14,283.00 890.03,283.41 887.04,267.98 C884.49,254.80 878.15,236.23 871.53,222.50 C866.17,211.40 852.77,190.00 851.17,190.00 C850.70,190.00 849.45,190.95 848.41,192.10 C847.36,193.26 844.48,195.37 842.00,196.78 C839.53,198.20 837.32,199.50 837.09,199.67 C836.87,199.84 839.16,203.70 842.18,208.24 C856.59,229.90 865.27,251.83 871.47,282.22 C871.97,284.67 872.28,284.85 874.58,283.97 C875.98,283.44 879.80,283.00 883.07,283.00 ZM 595.21 158.33 C612.49,146.52 643.76,133.69 660.80,131.43 C663.52,131.07 666.21,130.49 666.77,130.14 C667.43,129.73 667.56,126.60 667.15,121.50 C666.36,111.82 666.45,111.86 651.87,114.98 C627.81,120.13 599.44,132.63 579.79,146.75 L 575.07 150.14 L 578.29 153.37 C580.05,155.14 582.39,158.26 583.48,160.30 C584.57,162.33 585.79,164.00 586.19,164.00 C586.59,164.00 590.65,161.45 595.21,158.33 ZM 803.56 161.83 C803.93,160.63 806.24,157.52 808.68,154.91 L 813.11 150.18 L 806.80 145.68 C782.91,128.65 753.35,116.74 724.87,112.68 L 721.24 112.17 L 720.76 120.83 C720.49,125.60 720.33,129.58 720.41,129.68 C720.48,129.78 725.09,130.80 730.66,131.93 C750.98,136.07 774.74,146.07 792.50,157.95 C797.45,161.26 801.81,163.97 802.18,163.98 C802.56,163.99 803.18,163.02 803.56,161.83 ZM 703.03 483.94 C702.94,482.07 724.41,424.93 727.14,419.75 C727.77,418.56 729.27,418.00 731.82,418.00 C735.42,418.00 735.89,418.42 743.39,428.51 C747.69,434.29 750.97,439.63 750.68,440.38 C749.26,444.09 734.98,448.25 726.93,447.30 L 722.36 446.76 L 720.68 451.17 C718.45,457.00 718.55,457.85 721.50,458.59 C722.88,458.93 724.00,459.65 724.00,460.18 C724.00,461.02 719.86,465.86 706.28,480.93 C704.50,482.89 703.04,484.25 703.03,483.94 ZM 750.03 421.90 C746.16,416.90 743.00,412.45 743.00,412.02 C743.00,411.60 743.67,409.63 744.50,407.65 C745.33,405.68 746.00,403.01 746.00,401.73 C746.00,399.64 748.17,398.49 766.75,390.68 C778.16,385.88 788.04,381.97 788.69,381.98 C792.09,382.04 789.97,385.01 778.60,396.06 L 766.12 408.19 L 762.53 419.60 C760.56,425.87 758.52,431.00 758.00,431.00 C757.49,431.00 753.90,426.91 750.03,421.90 ZM 653.41 421.51 C650.06,416.38 654.06,411.79 660.48,413.41 C666.12,414.82 663.96,424.00 658.00,424.00 C655.95,424.00 654.54,423.23 653.41,421.51 ZM 789.57 404.35 L 785.63 401.68 L 792.06 395.63 C796.95,391.04 798.57,390.00 798.82,391.29 C799.23,393.45 796.50,402.94 794.79,405.26 C793.58,406.92 793.26,406.87 789.57,404.35 ZM 834.26 337.75 C834.51,335.41 835.72,330.80 836.96,327.50 C838.85,322.44 839.14,320.01 838.82,312.00 C838.49,303.92 837.97,301.50 835.31,295.83 C833.59,292.16 832.38,288.96 832.62,288.72 C832.86,288.47 833.39,286.34 833.79,283.97 C834.20,281.60 834.97,279.52 835.51,279.35 C836.06,279.17 841.48,282.96 847.56,287.77 C866.90,303.03 865.12,300.78 865.24,310.00 L 865.34 318.02 L 850.44 330.01 C842.25,336.61 835.15,342.00 834.67,342.00 C834.19,342.00 834.00,340.09 834.26,337.75 ZM 541.87 332.75 C536.12,328.21 529.32,322.92 526.75,321.00 C523.05,318.23 522.22,317.09 522.76,315.50 C523.13,314.40 523.35,310.80 523.25,307.50 L 523.05 301.50 L 537.58 290.00 C545.57,283.67 552.46,278.37 552.89,278.22 C553.32,278.07 554.08,280.54 554.58,283.72 C555.43,289.04 555.24,290.13 552.27,297.50 C548.22,307.52 547.81,318.17 551.14,327.00 C553.50,333.26 554.67,341.00 553.26,341.00 C552.74,341.00 547.61,337.29 541.87,332.75 ZM 677.00 243.52 C663.72,227.16 664.72,229.03 666.49,224.04 C668.51,218.29 668.43,217.25 665.40,211.18 L 662.80 205.96 L 668.54 191.98 C671.71,184.27 674.86,178.00 675.56,178.00 C677.71,178.00 683.84,186.00 685.48,190.94 C686.77,194.82 686.99,200.66 686.77,225.41 L 686.50 255.21 L 677.00 243.52 ZM 771.00 207.89 L 771.00 195.78 L 773.75 196.45 C777.46,197.35 787.00,203.71 787.00,205.29 C787.00,206.91 773.85,220.00 772.22,220.00 C771.33,220.00 771.00,216.78 771.00,207.89 ZM 727.35 206.53 C724.07,204.24 723.76,201.15 726.52,198.39 C729.38,195.52 731.13,195.38 733.35,197.83 C735.53,200.24 735.45,204.28 733.17,206.35 C730.92,208.38 730.03,208.41 727.35,206.53 ZM 638.17 195.85 L 631.08 187.56 L 632.94 184.53 C635.40,180.50 643.00,175.37 649.28,173.51 C656.88,171.25 666.00,171.61 666.00,174.17 C666.00,175.37 655.03,201.27 654.15,202.15 C653.79,202.50 651.65,203.10 649.38,203.46 L 645.26 204.13 L 638.17 195.85 ZM 689.22 172.97 C684.08,167.25 673.97,161.00 669.84,161.00 C668.83,161.00 668.00,160.77 668.00,160.49 C668.00,160.20 671.88,154.91 676.61,148.74 L 685.23 137.50 L 693.55 137.48 C699.85,137.47 702.36,137.87 703.93,139.15 C705.07,140.07 706.00,141.10 706.00,141.44 C706.00,141.78 709.15,146.05 713.00,150.93 C716.85,155.81 720.00,160.07 720.00,160.40 C720.00,160.73 719.44,161.00 718.75,161.01 C716.61,161.03 707.20,165.76 703.45,168.70 C701.49,170.24 698.66,173.14 697.16,175.14 L 694.45 178.79 L 689.22 172.97 Z" fill="rgb(248,248,245)"/>
</g>
</svg>